<?xml version="1.0"?>
<svg xmlns="http://www.w3.org/2000/svg" version="1.2" baseProfile="tiny" width="800" height="632" viewBox="0 0 800 632" stroke-linecap="round" stroke-linejoin="round">
<g id="departamentos-chaco">
<path d="M 526.38 352.3 527.2 352.29 527.94 352.29 537.08 352.38 537.8 352.39 539.05 352.4 540.05 352.42 541.07 352.43 542.11 352.44 542.11 352.44 542.11 355.89 542.1 364.91 542.1 366.68 542.07 368.15 541.92 379.66 541.91 380.97 541.9 381.46 541.58 412.14 541.55 415.5 539.57 414.81 528.42 410.95 527.85 412.27 519.75 430.94 518.26 434.33 509.83 453.68 509.66 454.29 505.16 464.3 499.54 477.06 499.31 477.58 497.93 477.1 485.51 472.72 484.39 472.37 483.03 471.89 478.5 470.3 477.03 469.78 477.05 469.75 477.61 468.47 478.81 465.74 482.32 457.72 482.88 456.44 488.32 443.96 488.68 443.13 489.27 441.8 489.62 441 491.11 437.5 491.59 436.41 494.59 429.78 494.53 429.75 495.11 428.42 499.81 417.78 499.87 417.67 500.42 416.4 501 415.12 505.71 404.52 506.3 403.19 507.75 403.71 509.93 404.47 509.95 404.16 509.95 403.61 510.02 396.41 510.02 395.96 510.03 395.33 510.03 394.95 510.05 393.54 510.17 381.22 510.18 380.69 510.18 380.54 510.2 379.27 510.36 367.8 510.38 366.41 510.39 365.7 510.4 365 510.52 353.53 510.53 352.16 512.09 352.17 524.79 352.28 525.3 352.29 526.35 352.3 526.38 352.3 Z"/>
<path d="M 612.97 464.62 612.95 481.87 612.91 493.27 612.91 494.89 612.89 500.55 609.77 503.34 605.57 507.01 606.22 507.61 598.32 507.63 588.95 507.65 588.59 508.06 572.68 508.04 562 508.04 556.62 508.04 548.68 508 540.72 507.95 540.67 500.92 540.63 493.8 545.4 493.76 543.99 493.25 540.25 491.91 536.57 490.59 537.94 487.39 551.66 455.87 552.24 454.54 556.91 443.78 557.49 442.45 564.82 425.4 565.47 423.89 565.7 417.01 565.8 417.02 587.39 416.98 589.41 416.98 589.45 424.31 589.46 431.5 604.95 431.41 604.94 445.52 604.99 458.99 605 459.91 611.27 459.95 612.99 459.96 612.97 462.32 612.97 464.62 Z"/>
<path d="M 477.05 469.75 477.03 469.78 478.5 470.3 483.03 471.89 484.39 472.37 485.51 472.72 497.93 477.1 499.31 477.58 499.31 477.59 500.79 478.1 505.26 479.68 506.73 480.19 507.78 480.57 508.88 480.95 508.87 482.13 508.8 492.36 508.76 506.37 508.75 507.72 508.45 507.72 508.39 536.38 508.38 540.24 508.31 565.19 508.28 579.38 492.46 579.29 464.63 579.21 459.76 579.22 459.63 564.66 460.19 564.66 468.18 564.74 468.23 557.63 468.39 536.15 460.38 536.09 460.54 521.71 460.74 507.29 460.76 506.05 460.87 494.41 460.89 493.11 461.04 480.26 461.07 478.83 461.32 464.2 462.09 464.47 462.89 464.75 477.05 469.75 Z"/>
<path d="M 461.32 464.2 461.07 478.83 461.04 480.26 460.89 493.11 460.87 494.41 460.76 506.05 460.74 507.29 460.54 521.71 460.38 536.09 445.21 535.96 444.33 535.95 429.92 535.76 428.3 535.73 426.7 535.72 417.04 535.62 415.4 535.57 413.79 535.58 399.4 535.42 398.49 535.41 398.45 526.96 398.44 525.92 412.51 521.17 412.51 520.56 412.51 520.53 412.67 511.76 400.37 503.39 399.09 502.48 400.72 500.57 401.03 500.2 407.78 492.25 408.79 491.11 412.97 493.96 412.99 492.66 413.12 485.97 413.13 485.15 413.12 483.62 413.21 471.36 429.11 471.51 429.22 471.51 445.04 471.63 445.05 458.45 445.88 458.74 447.36 459.27 449.02 459.85 461.32 464.2 Z"/>
<path d="M 331.58 408.55 331.52 412.47 331.15 437.16 333.91 437.18 335.92 437.2 354.05 437.34 353.38 438.14 353.17 438.38 350.06 442.01 351.35 442.9 368.45 454.59 369.07 455.02 370.36 455.9 387.18 467.43 388.17 468.12 388.36 468.23 388.89 468.58 400.89 476.81 402.13 477.65 413.13 485.15 413.12 485.97 412.99 492.66 412.97 493.96 408.79 491.11 407.78 492.25 401.03 500.2 400.72 500.57 399.09 502.48 400.37 503.39 412.67 511.76 412.51 520.53 412.51 520.56 410.81 519.4 399.2 511.5 393.75 507.8 382.79 500.37 381.52 499.51 380.23 498.63 369.48 491.3 368.8 490.84 367.6 490.02 356.85 482.66 355.99 482.1 344.61 474.29 343.3 473.42 342.07 472.57 330.63 464.71 319.1 456.79 317.85 455.93 307.64 448.92 305.06 447.15 302.55 445.42 292.36 438.39 282.09 431.32 279.53 429.57 271.7 424.12 271.72 413.04 271.75 407.63 323.53 408.43 331.58 408.55 Z"/>
<path d="M 380.7 538.32 380.69 541.17 380.79 556.76 380.9 556.78 381.18 556.82 381.18 556.88 381.2 556.89 381.22 563.04 363.69 563.05 363.65 573.06 363.65 574.13 346.11 574.19 346.1 574.96 346.09 588.19 326.35 588.32 324.73 588.32 304.52 588.37 294.15 588.36 294.1 575.7 294.1 575.59 294 563.17 293.96 538.55 297.07 538.55 301.31 538.54 301.65 538.55 302.89 538.54 326.58 538.49 328.7 538.46 331.13 538.46 331.97 538.47 335.19 538.46 341.68 538.45 342.45 538.44 354.07 538.4 354.74 538.39 361.7 538.37 363.43 538.37 380.7 538.32 Z"/>
<path d="M 608.64 509.84 608.45 536.4 608.45 536.67 622.48 536.65 636.64 536.59 636.69 550.6 636.69 564.31 636.71 579.37 636.74 583.98 636.74 585.13 637.01 611.92 637.21 620.42 572.37 620.42 508.2 620.42 508.22 603.46 508.24 599.23 508.25 594.15 508.25 593.72 508.28 579.52 508.28 579.38 508.31 565.19 508.38 540.24 508.39 536.38 508.45 507.72 508.75 507.72 508.88 507.73 540.72 507.95 548.68 508 556.62 508.04 562 508.04 572.68 508.04 588.59 508.06 588.95 507.65 598.32 507.63 606.22 507.61 608.64 509.84 Z"/>
<path d="M 705.19 515.53 703.38 517.14 702.89 517.57 698.32 521.59 689.24 529.58 686.95 531.59 686.92 531.56 686.37 532.06 682.37 535.59 678.9 532.56 673.75 528 667.44 533.63 658.25 533.68 636.63 533.73 636.64 536.59 622.48 536.65 608.45 536.67 608.45 536.4 608.64 509.84 616.78 517.29 627.86 527.45 632.61 523.25 635.45 520.68 637.35 518.97 648.57 508.84 650.35 507.23 648.64 505.69 651.97 502.58 654.19 500.5 655.34 499.44 657.3 501.15 658.05 501.81 658.58 501.33 664.23 496.21 664.42 496.05 663.82 495.49 664.69 494.73 672.15 488.22 673.43 487.1 674.5 488.05 684.17 496.7 684.78 497.22 683.57 498.35 683.4 498.55 683.55 498.55 683.69 498.57 683.75 498.5 683.9 498.51 683.99 498.49 684.14 498.54 684.24 498.6 684.29 498.69 684.36 498.75 684.46 498.8 684.53 498.85 684.6 498.91 684.69 498.97 684.8 498.99 685.01 499.02 685.11 499.11 685.2 499.16 685.28 499.2 685.39 499.25 685.57 499.23 685.66 499.23 685.76 499.19 685.88 499.21 685.81 499.27 686.12 499.39 686.57 499.31 686.62 499.19 686.98 499.51 686.97 499.67 686.93 499.74 686.88 499.85 686.93 499.96 686.96 500.07 686.99 500.17 687.04 500.26 687.07 500.37 687.1 500.5 687.24 500.45 687.24 500.22 687.22 500.13 687.29 500 687.27 499.87 687.38 499.93 687.47 499.97 687.53 499.87 687.6 499.78 687.62 499.66 687.58 499.55 687.71 499.6 687.88 499.76 687.92 499.86 687.92 499.95 687.91 500.07 687.91 500.15 687.8 500.22 687.7 500.21 687.65 500.28 687.55 500.39 687.45 500.48 687.45 500.63 687.54 500.81 687.68 500.89 687.75 500.96 687.85 501.02 687.95 500.96 688.12 500.87 688.24 500.74 688.28 500.64 688.39 500.7 688.47 500.81 688.53 500.92 688.6 501.05 688.62 501.18 688.5 501.35 688.25 501.42 688.12 501.46 687.92 501.55 687.82 501.61 687.71 501.64 687.73 501.81 687.89 502.04 688.04 502.05 688.21 502.11 688.29 502.05 688.44 502.03 688.54 501.94 688.69 501.94 688.77 501.97 688.88 502 689 502 689.22 502.03 689.37 501.99 689.6 502.1 689.71 502.14 689.83 502.28 689.9 502.41 689.92 502.58 689.94 502.69 689.8 502.84 689.61 502.99 689.51 503.03 689.35 503.11 689.26 503.18 689.28 503.42 689.34 503.54 689.43 503.73 689.55 503.88 689.66 503.95 689.74 503.99 689.66 504.21 689.56 504.33 689.43 504.36 689.31 504.48 689.27 504.63 689.27 504.87 689.3 505.16 689.38 505.39 689.46 505.45 689.67 505.59 689.82 505.62 690.09 505.62 690.23 505.57 690.42 505.53 690.65 505.62 690.61 505.75 690.53 505.82 690.44 505.86 690.38 506.05 690.35 506.19 690.36 506.36 690.35 506.57 690.47 506.73 690.58 506.81 690.72 506.79 690.99 506.77 691.14 506.88 691.32 506.93 691.33 507.02 691.2 507.06 690.95 507.23 690.7 507.29 690.59 507.39 690.73 507.68 690.77 507.84 690.88 507.94 691.11 508.08 691.36 508.21 691.54 508.34 691.5 508.45 691.49 508.55 691.37 508.62 691.37 508.73 691.29 508.84 691.26 508.95 691.23 509.08 691.31 509.16 691.44 509.13 691.57 509.09 691.71 509.07 691.77 509 691.88 508.93 691.95 508.81 691.98 508.73 691.98 508.59 691.99 508.44 692.17 508.41 692.31 508.45 692.38 508.37 692.5 508.48 692.54 508.61 692.44 508.78 692.51 508.84 692.58 508.97 692.62 509.05 692.79 509.16 692.87 509.19 693.02 509.16 693.1 509.08 693.24 508.99 693.35 508.84 693.43 508.74 693.53 508.78 693.55 508.89 693.51 509.04 693.49 509.17 693.49 509.26 693.46 509.58 693.42 509.73 693.56 509.73 693.72 509.69 693.81 509.6 693.89 509.5 693.92 509.37 693.97 509.32 694.14 509.25 694.27 509.19 694.33 509.14 694.34 508.98 694.39 508.84 694.49 508.73 694.61 508.59 694.72 508.51 694.77 508.49 694.9 508.44 695.09 508.42 695.14 508.35 696.1 507.45 705.19 515.53 Z"/>
<path d="M 460.38 536.09 468.39 536.15 468.23 557.63 468.18 564.74 460.19 564.66 459.63 564.66 459.76 579.22 464.63 579.21 492.46 579.29 508.28 579.38 508.28 579.52 508.25 593.72 508.25 594.15 508.24 599.23 508.22 603.46 508.21 606.79 508.2 620.42 398.52 620.42 398.51 620.18 398.51 620.16 398.52 605.84 398.52 604.62 398.53 588.22 383.96 588.21 382.02 588.17 382.02 586.74 382.01 564.67 382.01 563.04 381.22 563.04 381.2 556.89 381.18 556.88 381.18 556.82 380.9 556.78 380.79 556.76 380.69 541.17 380.7 538.32 384.81 538.35 384.71 528.7 384.69 527.06 384.68 525.93 398.44 525.92 398.44 525.92 398.45 526.96 398.49 535.41 399.4 535.42 413.79 535.58 415.4 535.57 417.04 535.62 426.7 535.72 428.3 535.73 429.92 535.76 444.33 535.95 445.21 535.96 460.38 536.09 Z"/>
<path d="M 271.75 575.61 271.82 575.61 286.2 575.67 294.1 575.7 294.15 588.36 304.52 588.37 324.73 588.32 326.35 588.32 346.09 588.19 346.1 574.96 346.11 574.19 363.65 574.13 363.65 573.06 363.69 563.05 381.22 563.04 382.01 563.04 382.01 564.67 382.02 586.74 382.02 588.17 383.96 588.21 391.7 588.21 398.53 588.22 398.52 604.62 398.52 605.84 398.52 609.81 398.51 620.16 398.51 620.18 398.52 620.42 271.74 620.42 271.74 607.97 271.74 596.28 271.74 590.82 271.75 575.61 Z"/>
<path d="M 384.71 528.7 384.81 538.35 380.7 538.32 363.43 538.37 361.7 538.37 354.74 538.39 354.07 538.4 342.45 538.44 341.68 538.45 335.19 538.46 331.97 538.47 331.13 538.46 328.7 538.46 326.58 538.49 302.89 538.54 301.65 538.55 301.31 538.54 297.07 538.55 293.96 538.55 294 563.17 294.1 575.59 294.1 575.7 271.82 575.61 271.75 575.61 271.75 451.51 272.45 452 275.01 453.76 281.02 457.91 288.74 463.23 290.31 464.31 292.86 466.11 303.09 473.18 304.37 474.01 315.89 481.91 316.05 481.73 322.39 486.08 323.64 486.93 334.21 494.15 341.05 498.87 341.4 499.12 341.88 499.46 353.22 507.31 354.13 507.94 355.4 508.79 362.3 513.49 372.03 520.18 373.29 521.04 374.55 521.89 383.57 527.93 384.71 528.7 Z"/>
<path d="M 412.51 520.56 412.51 521.17 398.44 525.92 398.44 525.92 384.68 525.93 384.69 527.06 384.71 528.7 383.57 527.93 374.55 521.89 373.29 521.04 372.03 520.18 362.3 513.49 355.4 508.79 354.13 507.94 353.22 507.31 341.88 499.46 341.4 499.12 341.05 498.87 334.21 494.15 323.64 486.93 322.39 486.08 316.05 481.73 315.89 481.91 304.37 474.01 303.09 473.18 292.86 466.11 290.31 464.31 288.74 463.23 275.01 453.76 272.45 452 271.75 451.51 271.75 428.41 271.74 428.41 271.7 424.71 271.7 424.45 271.7 424.12 271.75 424.15 279.53 429.57 282.09 431.32 292.36 438.39 302.55 445.42 305.06 447.15 307.64 448.92 317.85 455.93 319.1 456.79 330.63 464.71 342.07 472.57 343.3 473.42 344.61 474.29 355.99 482.1 356.85 482.66 367.6 490.02 368.8 490.84 369.48 491.3 380.23 498.63 381.52 499.51 382.79 500.37 393.75 507.8 399.2 511.5 410.81 519.4 412.51 520.56 Z"/>
<path d="M 573.52 388.4 585.37 388.49 589.36 388.53 589.36 389.23 589.4 402.76 620.94 402.79 621 417.08 623.46 417.07 628.13 417.06 629 417.06 629.02 419.52 629.04 424.58 629.08 431.33 629.17 431.33 644.64 431.3 660.73 431.24 660.9 431.24 660.9 431.24 668.76 431.2 668.78 433.91 672.7 433.89 676.08 433.87 676.14 438.55 676.16 441.99 673.76 442 673.8 446.85 673.71 446.77 668.04 451.69 654.51 463.7 652.87 465.18 652.89 463.48 652.96 459.79 652.96 459.77 650.01 459.79 644.9 459.77 644.88 461.53 644.91 467.08 636.94 467.12 636.94 466.18 636.93 465.31 636.93 464.56 634.06 464.56 633.92 464.57 612.97 464.62 612.97 462.32 612.99 459.96 611.27 459.95 605 459.91 604.99 458.99 604.94 445.52 604.95 431.41 589.46 431.5 589.45 424.31 589.41 416.98 587.39 416.98 565.8 417.02 565.7 417.01 565.7 416.38 565.62 390.14 565.61 388.33 567.15 388.34 573.52 388.4 Z"/>
<path d="M 506.3 403.19 505.71 404.52 501 415.12 500.42 416.4 499.87 417.67 499.81 417.78 495.11 428.42 494.53 429.75 494.59 429.78 491.59 436.41 491.11 437.5 489.62 441 489.27 441.8 488.68 443.13 488.32 443.96 482.88 456.44 482.32 457.72 478.81 465.74 477.61 468.47 477.05 469.75 462.89 464.75 462.09 464.47 461.32 464.2 449.02 459.85 447.36 459.27 445.88 458.74 445.05 458.45 432.5 454.02 433 452.91 438.22 441.23 438.44 440.71 443.7 428.75 444.29 427.44 445.75 424.13 448.71 417.46 449.66 415.33 450.25 414.01 450.53 413.36 455.32 402.34 455.74 401.39 461.86 387.48 461.86 387.48 461.87 387.46 476.66 392.69 478.14 393.21 491.44 397.96 492.96 398.48 506.25 403.17 506.3 403.19 Z"/>
<path d="M 461.86 387.48 461.86 387.48 455.74 401.39 455.32 402.34 450.53 413.36 450.25 414.01 449.66 415.33 448.71 417.46 445.75 424.13 444.29 427.44 443.7 428.75 438.44 440.71 438.22 441.23 433 452.91 432.5 454.02 445.05 458.45 445.04 471.63 429.22 471.51 429.11 471.51 413.21 471.36 413.25 465.86 413.27 462.23 413.2 447.14 407.74 445.18 407.55 445.45 402.77 451.02 383.32 437.77 383.01 437.54 384.64 437.55 385.42 437.56 385.8 408.99 395.32 409.07 395.32 409.93 399.82 411.55 417.52 371.59 417.65 371.66 432.33 376.89 433.17 377.2 447.11 382.24 447.84 382.5 461.86 387.48 Z"/>
<path d="M 385.8 408.99 385.42 437.56 384.64 437.55 383.01 437.54 383.32 437.77 402.77 451.02 407.55 445.45 407.74 445.18 413.2 447.14 413.27 462.23 413.25 465.86 413.21 471.36 413.12 483.62 413.13 485.15 402.13 477.65 400.89 476.81 388.89 468.58 388.36 468.23 388.17 468.12 387.18 467.43 370.36 455.9 369.07 455.02 368.45 454.59 351.35 442.9 350.06 442.01 353.17 438.38 353.38 438.14 354.05 437.34 335.92 437.2 333.91 437.18 331.15 437.16 331.52 412.47 331.58 408.55 331.97 408.55 333.75 408.57 380.81 408.92 384.02 408.94 385.32 408.98 385.8 408.99 Z"/>
<path d="M 673.8 446.85 684.67 456.64 685.87 457.66 694.97 465.89 696.04 466.85 695 467.91 684.68 477.18 683.47 478.18 673.5 487.04 673.43 487.1 672.15 488.22 664.69 494.73 663.82 495.49 664.42 496.05 664.23 496.21 658.58 501.33 658.05 501.81 657.3 501.15 655.34 499.44 654.19 500.5 651.97 502.58 648.64 505.69 650.35 507.23 648.57 508.84 637.35 518.97 635.45 520.68 632.61 523.25 627.86 527.45 616.78 517.29 608.64 509.84 606.22 507.61 605.57 507.01 609.77 503.34 612.89 500.55 612.91 494.89 612.91 493.27 612.95 481.87 612.97 464.62 633.92 464.57 634.06 464.56 636.93 464.56 636.93 465.31 636.94 466.18 636.94 467.12 644.91 467.08 644.88 461.53 644.9 459.77 650.01 459.79 652.96 459.77 652.96 459.79 652.89 463.48 652.87 465.18 654.51 463.7 668.04 451.69 673.71 446.77 673.8 446.85 Z"/>
<path d="M 542.11 352.44 558 352.52 562.37 352.52 565.86 352.51 565.87 354.91 573.48 354.9 573.52 359.87 573.52 363.05 573.53 364.35 573.53 365.49 573.54 367.06 573.56 374.25 573.54 381.4 573.52 388.4 567.15 388.34 565.61 388.33 565.62 390.14 565.7 416.38 565.7 417.01 565.47 423.89 564.82 425.4 557.49 442.45 556.91 443.78 552.24 454.54 551.66 455.87 537.94 487.39 536.57 490.59 540.25 491.91 543.99 493.25 545.4 493.76 540.63 493.8 540.67 500.92 540.72 507.95 508.88 507.73 508.75 507.72 508.76 506.37 508.8 492.36 508.87 482.13 508.88 480.95 507.78 480.57 506.73 480.19 505.26 479.68 500.79 478.1 499.31 477.59 499.31 477.58 499.54 477.06 505.16 464.3 509.66 454.29 509.83 453.68 518.26 434.33 519.75 430.94 527.85 412.27 528.42 410.95 539.57 414.81 541.55 415.5 541.58 412.14 541.9 381.46 541.91 380.97 541.92 379.66 542.07 368.15 542.1 366.68 542.1 364.91 542.11 355.89 542.11 352.44 Z"/>
<path d="M 526.69 323.74 526.38 352.26 526.38 352.3 526.35 352.3 525.3 352.29 524.79 352.28 512.09 352.17 510.53 352.16 510.52 353.53 510.4 365 510.39 365.7 510.38 366.41 510.36 367.8 510.2 379.27 510.18 380.54 510.18 380.69 510.17 381.22 510.05 393.54 510.03 394.95 510.03 395.33 510.02 395.96 510.02 396.41 509.95 403.61 509.95 404.16 509.93 404.47 507.75 403.71 506.3 403.19 506.25 403.17 492.96 398.48 491.44 397.96 478.14 393.21 476.66 392.69 461.87 387.46 461.86 387.48 447.84 382.5 447.11 382.24 433.17 377.2 432.33 376.89 417.65 371.66 417.52 371.59 415.03 370.7 414.98 370.67 415.07 365.66 415.83 322.55 417.41 322.57 428.66 322.7 431.71 322.73 432.37 322.73 433.93 322.77 434.88 322.78 477.71 323.26 522.75 323.7 523.49 323.71 525.08 323.74 525.57 323.74 526.69 323.74 Z"/>
<path d="M 737.53 516.75 737.44 516.85 737.2 517.17 737.14 517.25 737.09 517.33 736.97 517.63 736.93 517.77 736.91 517.84 736.79 518.35 736.76 518.45 736.75 518.51 736.74 518.59 736.7 518.75 736.68 518.82 736.66 518.91 736.58 519.27 736.55 519.43 736.52 519.59 736.51 519.61 736.47 519.94 736.47 520.02 736.47 520.16 736.46 520.32 736.47 520.46 736.47 520.49 736.58 521.62 736.66 522.13 736.13 522.32 735.36 522.7 734.3 523.66 733.67 524.26 733.38 524.5 732.71 526.48 731.82 528.06 730.99 529.34 730.78 529.56 729.97 530.45 727.76 532.19 725.64 534.13 724.49 535.16 723.29 536.22 721.94 537.7 720.91 538.99 720.5 539.59 720.47 539.57 720.07 539.15 720.07 539.15 719.56 537.18 719.88 536.94 719.61 537.01 719.48 537.04 719.2 537.11 719.14 537.13 719.06 537.14 718.94 537.14 718.84 537.16 718.62 537.16 718.33 537.31 718.19 537.36 718.06 537.42 717.77 537.55 717.67 537.58 717.58 537.63 717.51 537.63 717.26 537.63 717.16 537.65 717.04 537.66 716.94 537.67 716.81 537.66 716.68 537.64 716.58 537.61 716.54 537.58 716.49 537.53 716.46 537.46 716.44 537.4 716.41 537.35 716.38 537.31 716.35 537.22 716.33 537.12 716.27 537.05 716.42 536.95 716.58 536.85 716.79 536.67 716.97 536.57 717.1 536.43 717.27 536.35 717.63 536.16 717.9 536.07 718.19 536.01 718.46 535.95 718.81 535.88 719.05 535.8 719.45 535.75 719.66 535.75 719.65 535.65 719.58 535.48 719.51 535.34 719.46 535.29 719.44 535.2 719.44 535.13 719.42 535.04 719.4 534.99 719.39 534.92 719.4 534.84 719.4 534.74 719.38 534.66 719.39 534.57 719.42 534.45 719.41 534.4 719.43 534.15 719.47 533.95 719.51 533.75 719.54 533.53 719.52 533.47 719.52 533.41 719.58 533.22 719.64 533.06 719.83 532.79 719.99 532.53 720.21 532.31 720.3 532.19 720.37 532.1 720.41 532.01 720.41 531.89 720.41 531.76 720.34 531.66 720.35 531.61 720.36 531.55 720.37 531.5 720.37 531.45 720.4 531.39 720.42 531.36 720.49 531.23 720.54 531.15 720.6 531.09 720.64 531.04 720.69 530.98 720.73 530.95 720.81 530.88 720.86 530.81 720.91 530.78 720.97 530.73 721.06 530.64 721.12 530.59 721.19 530.53 721.25 530.47 721.28 530.41 721.3 530.31 721.32 530.23 721.34 530.14 721.35 530.09 721.36 530.03 718.76 527.75 717.68 526.77 714.39 523.8 706.3 516.5 705.21 515.52 705.19 515.53 696.1 507.45 695.14 508.35 695.09 508.42 694.9 508.44 694.77 508.49 694.72 508.51 694.61 508.59 694.49 508.73 694.39 508.84 694.34 508.98 694.33 509.14 694.27 509.19 694.14 509.25 693.97 509.32 693.92 509.37 693.89 509.5 693.81 509.6 693.72 509.69 693.56 509.73 693.42 509.73 693.46 509.58 693.49 509.26 693.49 509.17 693.51 509.04 693.55 508.89 693.53 508.78 693.43 508.74 693.35 508.84 693.24 508.99 693.1 509.08 693.02 509.16 692.87 509.19 692.79 509.16 692.62 509.05 692.58 508.97 692.51 508.84 692.44 508.78 692.54 508.61 692.5 508.48 692.38 508.37 692.31 508.45 692.17 508.41 691.99 508.44 691.98 508.59 691.98 508.73 691.95 508.81 691.88 508.93 691.77 509 691.71 509.07 691.57 509.09 691.44 509.13 691.31 509.16 691.23 509.08 691.26 508.95 691.29 508.84 691.37 508.73 691.37 508.62 691.49 508.55 691.5 508.45 691.54 508.34 691.36 508.21 691.11 508.08 690.88 507.94 690.77 507.84 690.73 507.68 690.59 507.39 690.7 507.29 690.95 507.23 691.2 507.06 691.33 507.02 691.32 506.93 691.14 506.88 690.99 506.77 690.72 506.79 690.58 506.81 690.47 506.73 690.35 506.57 690.36 506.36 690.35 506.19 690.38 506.05 690.44 505.86 690.53 505.82 690.61 505.75 690.65 505.62 690.42 505.53 690.23 505.57 690.09 505.62 689.82 505.62 689.67 505.59 689.46 505.45 689.38 505.39 689.3 505.16 689.27 504.87 689.27 504.63 689.31 504.48 689.43 504.36 689.56 504.33 689.66 504.21 689.74 503.99 689.66 503.95 689.55 503.88 689.43 503.73 689.34 503.54 689.28 503.42 689.26 503.18 689.35 503.11 689.51 503.03 689.61 502.99 689.8 502.84 689.94 502.69 689.92 502.58 689.9 502.41 689.83 502.28 689.71 502.14 689.6 502.1 689.37 501.99 689.22 502.03 689 502 688.88 502 688.77 501.97 688.69 501.94 688.54 501.94 688.44 502.03 688.29 502.05 688.21 502.11 688.04 502.05 687.89 502.04 687.73 501.81 687.71 501.64 687.82 501.61 687.92 501.55 688.12 501.46 688.25 501.42 688.5 501.35 688.62 501.18 688.6 501.05 688.53 500.92 688.47 500.81 688.39 500.7 688.28 500.64 688.24 500.74 688.12 500.87 687.95 500.96 687.85 501.02 687.75 500.96 687.68 500.89 687.54 500.81 687.45 500.63 687.45 500.48 687.55 500.39 687.65 500.28 687.7 500.21 687.8 500.22 687.91 500.15 687.91 500.07 687.92 499.95 687.92 499.86 687.88 499.76 687.71 499.6 687.58 499.55 687.62 499.66 687.6 499.78 687.53 499.87 687.47 499.97 687.38 499.93 687.27 499.87 687.29 500 687.22 500.13 687.24 500.22 687.24 500.45 687.1 500.5 687.07 500.37 687.04 500.26 686.99 500.17 686.96 500.07 686.93 499.96 686.88 499.85 686.93 499.74 686.97 499.67 686.98 499.51 686.62 499.19 686.57 499.31 686.12 499.39 685.81 499.27 685.88 499.21 685.76 499.19 685.66 499.23 685.57 499.23 685.39 499.25 685.28 499.2 685.2 499.16 685.11 499.11 685.01 499.02 684.8 498.99 684.69 498.97 684.6 498.91 684.53 498.85 684.46 498.8 684.36 498.75 684.29 498.69 684.24 498.6 684.14 498.54 683.99 498.49 683.9 498.51 683.75 498.5 683.69 498.57 683.55 498.55 683.4 498.55 683.57 498.35 684.78 497.22 684.17 496.7 674.5 488.05 673.43 487.1 673.5 487.04 683.47 478.18 684.68 477.18 695 467.91 696.04 466.85 694.97 465.89 685.87 457.66 684.67 456.64 673.8 446.85 673.76 442 676.16 441.99 677.98 441.98 695.13 441.88 695.91 441.88 697.61 441.9 708.03 441.82 708.03 441.82 708.03 442.06 708.01 442.84 708.01 443.13 707.51 470.17 707.41 475.74 707.4 475.82 707.32 476.7 707.51 476.81 707.51 476.96 707.47 477.01 707.42 477.07 707.39 477.16 707.36 477.27 707.45 477.35 707.58 477.38 707.65 477.44 707.7 477.48 707.78 477.55 707.88 477.61 707.95 477.65 708.01 477.68 708.09 477.73 708.14 477.78 708.29 477.94 708.46 478.05 708.63 478.18 708.72 478.38 708.72 478.57 708.64 478.8 708.51 479.01 708.3 479.2 708.39 479.45 708.54 479.45 708.62 479.32 708.75 479.28 708.94 479.33 709.07 479.6 709.15 479.62 709.34 479.81 709.45 480.17 709.47 480.29 709.6 480.33 709.73 480.38 709.83 480.52 709.94 480.67 710.12 480.95 710.25 481.09 710.33 481.22 710.42 481.18 710.4 481.03 710.37 480.93 710.29 480.7 710.29 480.63 710.41 480.63 710.5 480.64 710.63 480.82 710.65 480.91 710.76 481.1 710.93 481.24 711.15 481.31 711.43 481.31 711.73 481.38 711.9 481.38 712.2 481.46 712.29 481.51 712.27 481.57 712.31 481.71 712.31 481.8 712.44 481.97 712.55 482.07 712.68 482.16 712.79 482.22 712.96 482.3 713.13 482.35 713.35 482.45 713.45 482.46 713.86 482.35 714.16 482.24 714.22 481.98 714.2 481.88 714.2 481.83 714.31 481.79 714.48 481.8 714.8 481.65 714.88 481.63 715.03 481.63 715.27 481.64 715.46 481.7 715.57 481.8 715.59 481.87 715.68 481.97 715.7 482.1 715.75 482.14 715.96 482.23 716.07 482.21 716.26 482.37 716.29 482.6 716.29 482.71 716.42 482.75 716.5 482.69 716.61 482.55 716.71 482.42 716.86 482.34 717.03 482.3 717.21 482.36 717.29 482.4 717.44 482.41 717.7 482.51 717.77 482.62 717.94 482.7 718.11 482.77 718.34 482.83 718.31 482.74 718.33 482.52 718.34 482.25 718.64 482.08 718.77 481.98 718.68 481.85 718.66 481.73 718.68 481.62 718.7 481.54 718.95 481.39 719.13 481.36 719.51 481.36 719.7 481.4 719.79 481.46 719.96 481.51 720.09 481.51 720.15 481.47 720.3 481.34 720.45 481.28 720.65 481.24 720.77 481.24 720.9 481.2 721.05 481.14 721.16 481.21 721.23 481.37 721.25 481.5 721.23 481.65 721.19 481.85 721.25 481.92 721.4 481.9 721.53 481.83 721.66 481.75 721.72 481.69 721.79 481.75 721.9 481.86 721.96 481.96 721.94 482.01 721.88 482.19 721.84 482.3 721.82 482.38 721.77 482.44 721.75 482.49 721.75 482.74 721.65 482.97 721.67 483.09 721.63 483.2 721.59 483.36 721.59 483.46 721.57 483.55 721.36 483.69 721.23 483.84 721.17 483.96 721.15 484.11 721.13 484.23 721.13 484.38 721.23 484.42 721.28 484.44 721.49 484.49 721.62 484.45 721.66 484.38 721.7 484.25 721.75 484.17 721.78 484.12 721.84 484.07 721.92 484.07 721.99 484.06 722.04 484.09 722.11 484.12 722.18 484.13 722.25 484.16 722.29 484.12 722.3 484.06 722.38 483.98 722.47 484.02 722.47 484.1 722.45 484.19 722.4 484.26 722.34 484.33 722.27 484.37 722.21 484.37 722.12 484.36 722.02 484.34 721.95 484.32 721.88 484.37 721.79 484.51 721.79 484.6 721.86 484.64 721.92 484.7 721.96 484.74 722.03 484.81 722.1 484.91 722.18 484.95 722.23 485.03 722.3 485.1 722.45 485.11 722.54 485.11 722.62 485.09 722.66 484.98 722.7 484.94 722.73 484.87 722.77 484.81 722.82 484.69 722.89 484.63 723.01 484.62 723.25 484.65 723.31 484.66 723.38 484.73 723.4 484.79 723.4 484.85 723.37 484.91 723.34 484.98 723.31 485.06 723.26 485.15 723.21 485.22 723.15 485.29 723.08 485.35 723.01 485.43 722.95 485.49 722.89 485.57 722.86 485.63 722.86 485.74 723.04 485.85 723.19 485.86 723.32 485.83 723.4 485.76 723.42 485.68 723.45 485.61 723.54 485.53 723.64 485.56 723.72 485.65 723.73 485.79 723.69 485.93 723.68 486.05 723.77 486.12 723.84 486.19 723.92 486.21 723.98 486.28 724.06 486.36 724.09 486.43 724.09 486.49 724.15 486.56 724.21 486.58 724.29 486.56 724.35 486.52 724.39 486.46 724.43 486.36 724.53 486.42 724.59 486.5 724.65 486.58 724.65 486.67 724.66 486.76 724.71 486.83 724.81 486.85 724.87 486.84 724.96 486.91 725 486.96 725.19 487.13 725.27 487.2 725.38 487.25 725.51 487.33 725.62 487.47 725.75 487.61 725.87 487.72 725.98 487.81 726.06 487.91 726.14 488 726.24 488.08 726.27 488.14 726.33 488.26 726.39 488.32 726.47 488.38 726.48 488.46 726.48 488.56 726.54 488.61 726.66 488.65 726.74 488.67 726.77 488.73 726.83 488.83 726.92 488.88 727.03 488.83 727.04 488.82 727.06 488.75 727.11 488.68 727.22 488.66 727.31 488.67 727.31 488.67 727.38 488.68 727.41 488.63 727.37 488.58 727.36 488.5 727.44 488.48 727.5 488.47 727.52 488.43 727.52 488.42 727.54 488.35 727.56 488.29 727.66 488.26 727.75 488.26 727.76 488.33 727.8 488.46 727.91 488.43 727.94 488.39 727.96 488.33 728.06 488.37 728.1 488.41 728.22 488.41 728.32 488.4 728.38 488.39 728.45 488.42 728.51 488.46 728.45 488.54 728.35 488.58 728.27 488.6 728.26 488.61 728.22 488.68 728.25 488.81 728.27 488.83 728.33 488.86 728.34 488.94 728.32 488.99 728.38 489.06 728.46 489.07 728.55 489.03 728.54 488.95 728.54 488.86 728.6 488.81 728.67 488.79 728.73 488.79 728.82 488.8 728.92 488.8 728.97 488.84 728.95 488.9 728.89 488.95 728.83 489.01 728.81 489.07 728.87 489.11 728.93 489.15 729.09 489.13 729.19 489.12 729.22 489.16 729.23 489.26 729.22 489.34 729.28 489.37 729.4 489.4 729.46 489.44 729.45 489.51 729.44 489.58 729.37 489.69 729.37 489.8 729.44 489.93 729.55 489.98 729.7 490.02 729.74 490.01 729.82 489.98 729.88 489.91 730.01 489.74 730.03 489.68 730.01 489.61 729.93 489.58 729.96 489.47 730.06 489.38 730.17 489.33 730.29 489.41 730.32 489.48 730.35 489.61 730.41 489.76 730.46 489.91 730.59 489.95 730.75 490 730.79 490.14 730.7 490.29 730.78 490.38 730.9 490.4 731.05 490.46 730.98 490.55 730.97 490.65 731 490.8 731.11 490.87 731.18 490.85 731.25 490.82 731.37 490.82 731.45 490.85 731.4 490.97 731.34 491.04 731.35 491.2 731.49 491.27 731.62 491.28 731.7 491.24 731.67 491.18 731.66 491.12 731.72 491.08 731.79 491.12 731.89 491.09 731.95 491.12 731.93 491.18 731.98 491.23 732.06 491.19 732.17 491.2 732.23 491.26 732.2 491.32 732.13 491.36 732.1 491.41 732.03 491.42 731.97 491.45 731.95 491.52 731.95 491.63 732 491.7 732.11 491.7 732.19 491.74 732.32 491.72 732.37 491.65 732.48 491.53 732.56 491.51 732.61 491.47 732.69 491.44 732.76 491.35 732.78 491.25 732.74 491.2 732.68 491.16 732.7 491.09 732.79 491.11 732.88 491.14 732.97 491.11 733.01 491.02 733.1 491.02 733.15 491.1 733.2 491.19 733.22 491.25 733.18 491.29 733.09 491.33 733.04 491.43 733.06 491.54 733.14 491.58 733.13 491.66 733.09 491.71 733 491.76 732.98 491.84 733 491.91 732.99 491.97 732.99 492.03 732.96 492.12 732.94 492.17 732.86 492.26 732.79 492.29 732.74 492.39 732.76 492.48 732.87 492.53 732.95 492.57 733.03 492.57 733.12 492.57 733.17 492.5 733.18 492.43 733.16 492.37 733.17 492.28 733.21 492.22 733.29 492.16 733.36 492.19 733.38 492.26 733.39 492.33 733.39 492.38 733.46 492.38 733.56 492.35 733.64 492.32 733.7 492.39 733.85 492.42 733.96 492.41 734.07 492.42 734.14 492.47 734.19 492.43 734.22 492.27 734.28 492.23 734.33 492.31 734.35 492.37 734.42 492.42 734.49 492.49 734.47 492.57 734.45 492.62 734.31 492.78 734.3 492.86 734.27 493 734.29 493.1 734.21 493.15 734.07 493.16 733.95 493.18 733.69 493.18 733.61 493.21 733.49 493.22 733.5 493.33 733.56 493.38 733.61 493.44 733.55 493.57 733.49 493.62 733.58 493.66 733.7 493.68 733.76 493.67 733.78 493.75 733.86 493.83 733.94 493.87 734 493.92 733.97 494.07 733.98 494.14 734.06 494.22 734.19 494.27 734.28 494.29 734.35 494.31 734.33 494.43 734.39 494.46 734.46 494.4 734.55 494.4 734.61 494.36 734.73 494.38 734.82 494.49 734.88 494.56 734.9 494.72 734.85 494.76 734.83 494.81 734.9 494.83 734.97 494.86 734.97 494.94 735.02 494.99 735.06 495.1 735.06 495.19 735.25 495.22 735.33 495.23 735.35 495.33 735.41 495.46 735.42 495.56 735.43 495.62 735.49 495.81 735.49 495.96 735.57 496.04 735.63 496.25 735.63 496.53 735.72 496.63 735.76 496.8 735.76 496.93 735.89 497 736.04 496.86 736.17 496.83 736.28 496.86 736.36 497.03 736.36 497.13 736.38 497.26 736.4 497.44 736.55 497.54 736.72 497.45 736.85 497.55 736.95 497.57 737.09 497.58 737.24 497.55 737.7 497.55 737.92 497.44 738.09 497.43 738.31 497.41 738.48 497.37 738.7 497.4 738.81 497.4 738.9 497.25 738.9 497.07 738.96 497.02 739.09 497.04 739.16 497.12 739.26 497.17 739.33 497.07 739.51 497.03 739.7 497.01 739.81 497.05 739.89 497.18 739.89 497.36 739.85 497.48 739.74 497.59 739.56 497.63 739.49 497.7 739.49 497.8 739.41 497.94 739.36 498.09 739.06 498.1 739.03 498.25 738.99 498.43 738.84 498.51 738.7 498.53 738.62 498.58 738.62 498.75 738.6 498.82 738.66 498.86 738.74 498.86 738.81 498.85 738.85 498.78 738.89 498.71 739.03 498.68 739.1 498.69 739.18 498.71 739.31 498.72 739.38 498.7 739.44 498.67 739.5 498.69 739.52 498.75 739.53 498.86 739.5 498.95 739.48 499.02 739.44 499.06 739.4 499.18 739.4 499.26 739.39 499.35 739.39 499.56 739.4 499.71 739.44 499.76 739.56 499.78 739.58 499.85 739.51 499.88 739.45 499.88 739.4 499.94 739.37 500.02 739.34 500.11 739.39 500.14 739.43 500.23 739.41 500.28 739.33 500.29 739.23 500.29 739.11 500.27 739.14 500.36 739.2 500.41 739.28 500.45 739.29 500.54 739.24 500.57 739.16 500.65 739.11 500.72 739.08 500.79 739.03 500.84 739 500.93 739 500.98 738.97 501.03 738.92 501.1 738.84 501.16 738.78 501.21 738.73 501.28 738.76 501.33 738.87 501.37 738.96 501.35 739.03 501.33 739.08 501.3 739.13 501.33 739.16 501.38 739.11 501.45 739.14 501.54 739.17 501.62 739.12 501.65 739.03 501.71 739 501.75 739.01 501.85 739.05 501.92 739.13 501.99 739.21 501.99 739.27 501.97 739.34 501.9 739.41 501.94 739.41 502.02 739.41 502.07 739.49 502.12 739.57 502.13 739.62 502.17 739.61 502.26 739.55 502.31 739.51 502.36 739.46 502.41 739.43 502.46 739.4 502.52 739.43 502.6 739.47 502.63 739.45 502.68 739.39 502.73 739.35 502.84 739.36 502.91 739.38 502.96 739.39 503.02 739.42 503.06 739.53 503.03 739.58 502.94 739.67 502.88 739.73 502.89 739.79 502.92 739.88 502.98 739.96 503.04 740.03 503.08 740.07 503.13 740.09 503.21 740.1 503.33 740.11 503.39 740.07 503.44 740.03 503.51 739.94 503.56 739.88 503.63 739.79 503.77 739.74 503.92 739.68 504.04 739.63 504.17 739.69 504.27 739.77 504.39 739.77 504.53 739.79 504.61 739.89 504.7 739.95 504.7 739.98 504.64 739.99 504.51 740.02 504.44 739.98 504.34 739.96 504.24 739.96 504.11 740.01 504.02 740.08 503.97 740.14 503.91 740.22 503.91 740.29 503.98 740.31 504.14 740.31 504.2 740.31 504.27 740.33 504.34 740.32 504.4 740.32 504.45 740.41 504.45 740.47 504.49 740.48 504.54 740.54 504.59 740.68 504.58 740.78 504.54 740.85 504.61 740.85 504.66 740.89 504.71 740.98 504.77 741.06 504.81 741.15 504.86 741.17 504.93 741.16 504.99 741.16 505.04 741.19 505.18 741.2 505.24 741.22 505.32 741.22 505.37 741.21 505.44 741.21 505.51 741.22 505.57 741.23 505.66 741.25 505.73 741.25 505.98 741.27 506.08 741.27 506.34 741.28 506.43 741.3 506.59 741.35 506.65 741.46 506.72 741.55 506.77 741.66 506.83 741.76 506.89 741.94 506.98 742.05 507.01 742.13 507.04 742.26 507.07 742.34 507.1 742.43 507.16 742.54 507.21 742.6 507.31 742.71 507.44 742.73 507.54 742.71 507.69 742.65 507.78 742.61 507.84 742.57 508.01 742.48 508.13 742.41 508.29 742.33 508.42 742.21 508.62 742.05 508.92 742.02 509.05 741.96 509.15 741.89 509.28 741.85 509.36 741.62 509.53 741.56 509.64 741.49 509.86 741.33 510.04 741.26 510.18 741.22 510.23 741.05 510.49 740.95 510.71 740.87 510.9 740.76 511.02 740.53 511.27 740.47 511.37 740.31 511.51 740.28 511.56 739.39 511.99 739.02 512.16 738.63 512.27 738.17 512.49 738.06 512.55 737.93 512.66 737.74 512.88 737.68 513 737.63 513.08 737.59 513.17 737.56 513.27 737.47 513.41 737.42 513.51 737.4 513.57 737.36 513.64 737.32 513.75 737.27 513.93 737.26 514.02 737.26 514.11 737.27 514.19 737.28 514.35 737.29 514.42 737.33 514.57 737.46 514.8 737.55 514.93 737.59 515.01 737.65 515.09 737.72 515.16 737.79 515.24 737.86 515.33 737.91 515.41 737.92 515.48 737.93 516.17 737.91 516.29 737.82 516.41 737.69 516.57 737.53 516.75 Z"/>
<path d="M 736.66 522.13 736.58 521.62 736.47 520.49 736.47 520.46 736.46 520.32 736.47 520.16 736.47 520.02 736.47 519.94 736.51 519.61 736.52 519.59 736.55 519.43 736.58 519.27 736.66 518.91 736.68 518.82 736.7 518.75 736.74 518.59 736.75 518.51 736.76 518.45 736.79 518.35 736.91 517.84 736.93 517.77 736.97 517.63 737.09 517.33 737.14 517.25 737.2 517.17 737.44 516.85 737.45 516.85 737.53 516.75 737.69 516.57 737.82 516.41 737.91 516.29 737.93 516.17 737.92 515.48 737.91 515.41 737.86 515.33 737.79 515.24 737.72 515.16 737.65 515.09 737.59 515.01 737.55 514.93 737.46 514.8 737.33 514.57 737.29 514.42 737.28 514.35 737.27 514.19 737.26 514.11 737.26 514.02 737.27 513.93 737.32 513.75 737.36 513.64 737.4 513.57 737.42 513.51 737.47 513.41 737.56 513.27 737.59 513.17 737.63 513.08 737.68 513 737.74 512.88 737.93 512.66 738.06 512.55 738.17 512.49 738.63 512.27 739.02 512.16 739.39 511.99 740.28 511.56 740.31 511.51 740.47 511.37 740.53 511.27 740.76 511.02 740.87 510.9 740.95 510.71 741.05 510.49 741.22 510.23 741.26 510.18 741.33 510.04 741.49 509.86 741.56 509.64 741.62 509.53 741.85 509.36 741.89 509.28 741.96 509.15 742.02 509.05 742.05 508.92 742.21 508.62 742.33 508.42 742.41 508.29 742.48 508.13 742.57 508.01 742.61 507.84 742.65 507.78 742.71 507.69 742.73 507.54 742.71 507.44 742.6 507.31 742.54 507.21 742.43 507.16 742.34 507.1 742.26 507.07 742.13 507.04 742.05 507.01 741.94 506.98 741.76 506.89 741.66 506.83 741.55 506.77 741.46 506.72 741.35 506.65 741.3 506.59 741.28 506.43 741.27 506.34 741.27 506.08 741.25 505.98 741.25 505.73 741.23 505.66 741.22 505.57 741.21 505.51 741.21 505.44 741.22 505.37 741.22 505.32 741.2 505.24 741.19 505.18 741.16 505.04 741.16 504.99 741.17 504.93 741.15 504.86 741.06 504.81 740.98 504.77 740.89 504.71 740.85 504.66 740.85 504.61 740.78 504.54 740.68 504.58 740.54 504.59 740.48 504.54 740.47 504.49 740.41 504.45 740.32 504.45 740.32 504.4 740.33 504.34 740.31 504.27 740.31 504.2 740.31 504.14 740.29 503.98 740.22 503.91 740.14 503.91 740.08 503.97 740.01 504.02 739.96 504.11 739.96 504.24 739.98 504.34 740.02 504.44 739.99 504.51 739.98 504.64 739.95 504.7 739.89 504.7 739.79 504.61 739.77 504.53 739.77 504.39 739.69 504.27 739.63 504.17 739.68 504.04 739.74 503.92 739.79 503.77 739.88 503.63 739.94 503.56 740.03 503.51 740.07 503.44 740.11 503.39 740.1 503.33 740.09 503.21 740.07 503.13 740.03 503.08 739.96 503.04 739.88 502.98 739.79 502.92 739.73 502.89 739.67 502.88 739.58 502.94 739.53 503.03 739.42 503.06 739.39 503.02 739.38 502.96 739.36 502.91 739.35 502.84 739.39 502.73 739.45 502.68 739.47 502.63 739.43 502.6 739.4 502.52 739.43 502.46 739.46 502.41 739.51 502.36 739.55 502.31 739.61 502.26 739.62 502.17 739.57 502.13 739.49 502.12 739.41 502.07 739.41 502.02 739.41 501.94 739.34 501.9 739.27 501.97 739.21 501.99 739.13 501.99 739.05 501.92 739.01 501.85 739 501.75 739.03 501.71 739.12 501.65 739.17 501.62 739.14 501.54 739.11 501.45 739.16 501.38 739.13 501.33 739.08 501.3 739.03 501.33 738.96 501.35 738.87 501.37 738.76 501.33 738.73 501.28 738.78 501.21 738.84 501.16 738.92 501.1 738.97 501.03 739 500.98 739 500.93 739.03 500.84 739.08 500.79 739.11 500.72 739.16 500.65 739.24 500.57 739.29 500.54 739.28 500.45 739.2 500.41 739.14 500.36 739.11 500.27 739.23 500.29 739.33 500.29 739.41 500.28 739.43 500.23 739.39 500.14 739.34 500.11 739.37 500.02 739.4 499.94 739.45 499.88 739.51 499.88 739.58 499.85 739.56 499.78 739.44 499.76 739.4 499.71 739.39 499.56 739.39 499.35 739.4 499.26 739.4 499.18 739.44 499.06 739.48 499.02 739.5 498.95 739.53 498.86 739.52 498.75 739.5 498.69 739.44 498.67 739.38 498.7 739.31 498.72 739.18 498.71 739.1 498.69 739.03 498.68 738.89 498.71 738.85 498.78 738.81 498.85 738.74 498.86 738.66 498.86 738.6 498.82 738.62 498.75 738.62 498.58 738.7 498.53 738.84 498.51 738.99 498.43 739.03 498.25 739.06 498.1 739.36 498.09 739.41 497.94 739.49 497.8 739.49 497.7 739.56 497.63 739.74 497.59 739.85 497.48 739.89 497.36 739.89 497.18 739.81 497.05 739.7 497.01 739.51 497.03 739.33 497.07 739.26 497.17 739.16 497.12 739.09 497.04 738.96 497.02 738.9 497.07 738.9 497.25 738.81 497.4 738.7 497.4 738.48 497.37 738.31 497.41 738.09 497.43 737.92 497.44 737.7 497.55 737.24 497.55 737.09 497.58 736.95 497.57 736.85 497.55 736.72 497.45 736.55 497.54 736.4 497.44 736.38 497.26 736.36 497.13 736.36 497.03 736.28 496.86 736.17 496.83 736.04 496.86 735.89 497 735.76 496.93 735.76 496.8 735.72 496.63 735.63 496.53 735.63 496.25 735.57 496.04 735.49 495.96 735.49 495.81 735.43 495.62 735.42 495.56 735.41 495.46 735.35 495.33 735.33 495.23 735.25 495.22 735.06 495.19 735.06 495.1 735.02 494.99 734.97 494.94 734.97 494.86 734.9 494.83 734.83 494.81 734.85 494.76 734.9 494.72 734.88 494.56 734.82 494.49 734.73 494.38 734.61 494.36 734.55 494.4 734.46 494.4 734.39 494.46 734.33 494.43 734.35 494.31 734.28 494.29 734.19 494.27 734.06 494.22 733.98 494.14 733.97 494.07 734 493.92 733.94 493.87 733.86 493.83 733.78 493.75 733.76 493.67 733.7 493.68 733.58 493.66 733.49 493.62 733.55 493.57 733.61 493.44 733.56 493.38 733.5 493.33 733.49 493.22 733.61 493.21 733.69 493.18 733.95 493.18 734.07 493.16 734.21 493.15 734.29 493.1 734.27 493 734.3 492.86 734.31 492.78 734.45 492.62 734.47 492.57 734.49 492.49 734.42 492.42 734.35 492.37 734.33 492.31 734.28 492.23 734.22 492.27 734.19 492.43 734.14 492.47 734.07 492.42 733.96 492.41 733.85 492.42 733.7 492.39 733.64 492.32 733.56 492.35 733.46 492.38 733.39 492.38 733.39 492.33 733.38 492.26 733.36 492.19 733.29 492.16 733.21 492.22 733.17 492.28 733.16 492.37 733.18 492.43 733.17 492.5 733.12 492.57 733.03 492.57 732.95 492.57 732.87 492.53 732.76 492.48 732.74 492.39 732.79 492.29 732.86 492.26 732.94 492.17 732.96 492.12 732.99 492.03 732.99 491.97 733 491.91 732.98 491.84 733 491.76 733.09 491.71 733.13 491.66 733.14 491.58 733.06 491.54 733.04 491.43 733.09 491.33 733.18 491.29 733.22 491.25 733.2 491.19 733.15 491.1 733.1 491.02 733.01 491.02 732.97 491.11 732.88 491.14 732.79 491.11 732.7 491.09 732.68 491.16 732.74 491.2 732.78 491.25 732.76 491.35 732.69 491.44 732.61 491.47 732.56 491.51 732.48 491.53 732.37 491.65 732.32 491.72 732.19 491.74 732.11 491.7 732 491.7 731.95 491.63 731.95 491.52 731.97 491.45 732.03 491.42 732.1 491.41 732.13 491.36 732.2 491.32 732.23 491.26 732.17 491.2 732.06 491.19 731.98 491.23 731.93 491.18 731.95 491.12 731.89 491.09 731.79 491.12 731.72 491.08 731.66 491.12 731.67 491.18 731.7 491.24 731.62 491.28 731.49 491.27 731.35 491.2 731.34 491.04 731.4 490.97 731.45 490.85 731.37 490.82 731.25 490.82 731.18 490.85 731.11 490.87 731 490.8 730.97 490.65 730.98 490.55 731.05 490.46 730.9 490.4 730.78 490.38 730.7 490.29 730.79 490.14 730.75 490 730.59 489.95 730.46 489.91 730.41 489.76 730.35 489.61 730.32 489.48 730.29 489.41 730.17 489.33 730.06 489.38 729.96 489.47 729.93 489.58 730.01 489.61 730.03 489.68 730.01 489.74 729.88 489.91 729.82 489.98 729.74 490.01 729.7 490.02 729.55 489.98 729.44 489.93 729.37 489.8 729.37 489.69 729.44 489.58 729.45 489.51 729.46 489.44 729.4 489.4 729.28 489.37 729.22 489.34 729.23 489.26 729.22 489.16 729.19 489.12 729.09 489.13 728.93 489.15 728.87 489.11 728.81 489.07 728.83 489.01 728.89 488.95 728.95 488.9 728.97 488.84 728.92 488.8 728.82 488.8 728.73 488.79 728.67 488.79 728.6 488.81 728.54 488.86 728.54 488.95 728.55 489.03 728.46 489.07 728.38 489.06 728.32 488.99 728.34 488.94 728.33 488.86 728.27 488.83 728.25 488.81 728.22 488.68 728.26 488.61 728.27 488.6 728.35 488.58 728.45 488.54 728.51 488.46 728.45 488.42 728.38 488.39 728.32 488.4 728.22 488.41 728.1 488.41 728.06 488.37 727.96 488.33 727.94 488.39 727.91 488.43 727.8 488.46 727.76 488.33 727.75 488.26 727.66 488.26 727.56 488.29 727.54 488.35 727.52 488.42 727.52 488.43 727.5 488.47 727.44 488.48 727.36 488.5 727.37 488.58 727.41 488.63 727.38 488.68 727.31 488.67 727.31 488.67 727.22 488.66 727.11 488.68 727.06 488.75 727.04 488.82 727.03 488.83 726.92 488.88 726.83 488.83 726.77 488.73 726.74 488.67 726.66 488.65 726.54 488.61 726.48 488.56 726.48 488.46 726.47 488.38 726.39 488.32 726.33 488.26 726.27 488.14 726.24 488.08 726.14 488 726.06 487.91 725.98 487.81 725.87 487.72 725.75 487.61 725.62 487.47 725.51 487.33 725.38 487.25 725.27 487.2 725.19 487.13 725 486.96 724.96 486.91 724.87 486.84 724.81 486.85 724.71 486.83 724.66 486.76 724.65 486.67 724.65 486.58 724.59 486.5 724.53 486.42 724.43 486.36 724.39 486.46 724.35 486.52 724.29 486.56 724.21 486.58 724.15 486.56 724.09 486.49 724.09 486.43 724.06 486.36 723.98 486.28 723.92 486.21 723.84 486.19 723.77 486.12 723.68 486.05 723.69 485.93 723.73 485.79 723.72 485.65 723.64 485.56 723.54 485.53 723.45 485.61 723.42 485.68 723.4 485.76 723.32 485.83 723.19 485.86 723.04 485.85 722.86 485.74 722.86 485.63 722.89 485.57 722.95 485.49 723.01 485.43 723.08 485.35 723.15 485.29 723.21 485.22 723.26 485.15 723.31 485.06 723.34 484.98 723.37 484.91 723.4 484.85 723.4 484.79 723.38 484.73 723.31 484.66 723.25 484.65 723.01 484.62 722.89 484.63 722.82 484.69 722.77 484.81 722.73 484.87 722.7 484.94 722.66 484.98 722.62 485.09 722.54 485.11 722.45 485.11 722.3 485.1 722.23 485.03 722.18 484.95 722.1 484.91 722.03 484.81 721.96 484.74 721.92 484.7 721.86 484.64 721.79 484.6 721.79 484.51 721.88 484.37 721.95 484.32 722.02 484.34 722.12 484.36 722.21 484.37 722.27 484.37 722.34 484.33 722.4 484.26 722.45 484.19 722.47 484.1 722.47 484.02 722.38 483.98 722.3 484.06 722.29 484.12 722.25 484.16 722.18 484.13 722.11 484.12 722.04 484.09 721.99 484.06 721.92 484.07 721.84 484.07 721.78 484.12 721.75 484.17 721.7 484.25 721.66 484.38 721.62 484.45 721.49 484.49 721.28 484.44 721.23 484.42 721.13 484.38 721.13 484.23 721.15 484.11 721.17 483.96 721.23 483.84 721.36 483.69 721.57 483.55 721.59 483.46 721.59 483.36 721.63 483.2 721.67 483.09 721.65 482.97 721.75 482.74 721.75 482.49 721.77 482.44 721.82 482.38 721.84 482.3 721.88 482.19 721.94 482.01 721.96 481.96 721.9 481.86 721.79 481.75 721.72 481.69 721.66 481.75 721.53 481.83 721.4 481.9 721.25 481.92 721.19 481.85 721.23 481.65 721.25 481.5 721.23 481.37 721.16 481.21 721.05 481.14 720.9 481.2 720.77 481.24 720.65 481.24 720.45 481.28 720.3 481.34 720.15 481.47 720.09 481.51 719.96 481.51 719.79 481.46 719.7 481.4 719.51 481.36 719.13 481.36 718.95 481.39 718.7 481.54 718.68 481.62 718.66 481.73 718.68 481.85 718.77 481.98 718.64 482.08 718.34 482.25 718.33 482.52 718.31 482.74 718.34 482.83 718.11 482.77 717.94 482.7 717.77 482.62 717.7 482.51 717.44 482.41 717.29 482.4 717.21 482.36 717.03 482.3 716.86 482.34 716.71 482.42 716.61 482.55 716.5 482.69 716.42 482.75 716.29 482.71 716.29 482.6 716.26 482.37 716.07 482.21 715.96 482.23 715.75 482.14 715.7 482.1 715.68 481.97 715.59 481.87 715.57 481.8 715.46 481.7 715.27 481.64 715.03 481.63 714.88 481.63 714.8 481.65 714.48 481.8 714.31 481.79 714.2 481.83 714.2 481.88 714.22 481.98 714.16 482.24 713.86 482.35 713.45 482.46 713.35 482.45 713.13 482.35 712.96 482.3 712.79 482.22 712.68 482.16 712.55 482.07 712.44 481.97 712.31 481.8 712.31 481.71 712.27 481.57 712.29 481.51 712.2 481.46 711.9 481.38 711.73 481.38 711.43 481.31 711.15 481.31 710.93 481.24 710.76 481.1 710.65 480.91 710.63 480.82 710.5 480.64 710.41 480.63 710.29 480.63 710.29 480.7 710.37 480.93 710.4 481.03 710.42 481.18 710.33 481.22 710.25 481.09 710.12 480.95 709.94 480.67 709.83 480.52 709.73 480.38 709.6 480.33 709.47 480.29 709.45 480.17 709.34 479.81 709.15 479.62 709.07 479.6 708.94 479.33 708.75 479.28 708.62 479.32 708.54 479.45 708.39 479.45 708.3 479.2 708.51 479.01 708.64 478.8 708.72 478.57 708.72 478.38 708.63 478.18 708.46 478.05 708.29 477.94 708.14 477.78 708.09 477.73 708.01 477.68 707.95 477.65 707.88 477.61 707.78 477.55 707.7 477.48 707.65 477.44 707.58 477.38 707.45 477.35 707.36 477.27 707.39 477.16 707.42 477.07 707.47 477.01 707.51 476.96 707.51 476.81 707.32 476.7 707.4 475.82 707.41 475.74 707.51 470.17 708.01 443.13 708.01 442.84 708.03 442.06 708.03 441.82 708.03 441.82 707.99 434.67 707.96 432.37 707.96 432.36 707.96 431.31 707.97 429.1 707.97 428.8 707.97 428.8 707.97 428.75 708.16 428.93 709.27 429.86 709.82 430 710.26 429.98 710.24 429.86 710.09 429.59 710.07 429.32 710.11 429.08 710.52 428.8 710.81 428.79 711.01 428.74 711.11 428.66 711.1 428.57 710.97 428.21 710.98 428 711.12 427.9 711.14 427.8 711.23 427.77 711.57 427.66 712.09 427.65 712.6 427.6 712.93 427.64 713.17 427.79 713.26 427.93 713.27 427.96 713.31 428.04 713.33 428.23 713.53 428.24 713.56 428.23 713.87 428.07 714.05 427.91 713.88 427.86 713.55 427.68 713.42 427.44 713.66 427.22 713.97 427.24 714.28 427.43 714.51 427.7 714.55 428.07 714.51 428.14 714.5 428.6 714.59 428.9 715.13 428.47 715.12 428.36 715.19 428.17 715.23 427.82 715.31 427.69 715.46 427.76 715.52 427.97 715.79 427.97 716 428.19 716.05 428.29 716.49 429.13 716.7 429.69 722.26 424.56 742.43 406.37 749.97 399.57 750.12 399.94 750.43 400.56 750.68 400.94 750.92 401.31 751.02 401.77 750.94 402.16 750.69 402.59 750.65 402.83 750.66 403.15 750.78 403.55 751.04 404.05 751.55 404.27 751.81 404.45 751.74 404.67 751.48 404.87 751.29 405.15 751.09 405.73 751.53 405.8 751.86 405.69 752.21 405.67 752.44 405.92 752.64 406.16 753.15 406.11 753.39 406.18 753.94 406.51 754.34 406.74 754.56 406.99 754.46 407.32 754.52 407.59 754.77 407.76 754.97 407.83 755.11 407.96 755.18 408.13 755.38 408.31 755.58 408.41 756.01 408.31 756.7 407.97 757.33 407.81 757.52 408.2 757.93 408.46 758.56 408.46 758.99 408.66 759.54 408.87 759.98 409.18 760.42 409.66 760.73 410.06 761.29 411.03 761.71 411.51 762.26 411.9 763.03 412.04 763.51 412.24 764.04 412.58 764.96 412.98 765.51 413.07 766.03 412.99 766.51 412.86 767.2 412.6 768.1 412.63 768.4 412.86 768.13 413.35 767.61 414.03 767.62 414.32 767.7 414.58 767.95 414.82 768.46 415.05 768.67 415.4 768.32 415.77 768.28 416.11 768.54 416.84 768.77 417.22 768.77 417.75 768.77 418.42 768.86 419.08 768.88 419.21 768.92 419.27 769.04 419.43 769.3 419.78 769.71 419.59 770.16 419.33 770.65 419.43 771.06 421.16 771.96 422.55 772.36 422.84 772.64 422.99 772.94 422.91 773.12 422.7 773 421.95 773.14 421.44 773.23 421.04 773.54 420.89 774.4 420.88 774.68 421.23 774.71 422.1 774.59 422.73 774.49 423.18 774.47 423.53 774.45 423.69 774.6 424 775.02 424 775.58 423.85 775.92 423.81 776.02 423.81 776.45 423.85 776.79 424.07 777.05 424.26 777.09 424.67 777.14 424.87 777.24 425.2 777.32 425.31 777.84 425.2 778.44 425.09 779.01 424.79 779.54 424.52 779.88 424.56 780.03 424.86 779.91 425.13 779.31 425.46 779.21 425.54 778.78 425.88 778.67 426.41 778.93 426.97 779.23 427.36 779.31 427.46 779.57 427.95 779.8 428.25 780.03 428.63 780.13 428.81 780.21 428.97 780.7 429.15 781.04 429.04 781.16 428.63 781.04 428.29 781.09 428.15 781.12 428.06 781.42 427.84 781.83 428.17 781.84 428.2 781.86 428.56 781.76 428.86 781.79 429.79 781.77 430.54 781.9 430.93 781.87 431.15 782.1 431.6 782.47 431.83 782.74 431.83 782.74 431.56 782.81 431.24 782.81 431.22 783 431.04 783.41 430.89 783.98 430.7 784.43 430.62 784.96 430.7 784.77 431.15 784.28 431.64 784.22 431.74 784.02 432.05 783.83 432.39 783.73 432.76 783.64 433.11 783.3 433.71 783.17 434.22 783.15 434.27 783.34 434.54 784.02 434.65 784.58 434.35 785.24 433.97 785.37 433.9 785.94 433.6 786.31 433.41 786.8 433.52 786.94 433.54 787.07 433.56 787.4 433.67 787.74 433.6 788.16 433.52 788.34 433.54 788.5 433.56 788.31 433.94 788.27 434.01 788.01 434.69 788.04 434.97 788.08 435.33 788.17 435.47 788.31 435.7 788.77 435.47 789.01 435.34 789.32 435.18 789.99 434.97 790.15 434.91 790.79 434.73 791.24 434.57 791.43 434.84 791.47 435.37 791.5 435.5 791.55 435.78 791.81 436.16 792.11 436.23 792.68 436.01 793.13 435.78 793.71 435.85 793.73 435.85 794.18 436.08 794.37 436.42 794.22 436.68 793.8 436.91 793.75 436.96 793.5 437.21 793.39 437.4 793.62 437.62 794.05 437.74 794.18 437.77 794.42 437.85 794.56 437.89 794.9 437.85 794.97 437.44 794.86 436.91 794.87 436.72 794.9 436.31 794.9 435.89 795.08 435.48 795.54 435.59 795.69 435.76 795.88 435.97 796.01 436.08 796.29 436.31 796.43 436.58 796.52 436.76 796.74 437.36 796.74 437.4 796.67 438 796.59 438.64 796.28 439.05 796.25 439.09 796.06 439.36 796.03 439.88 796.18 440.22 796.59 440.41 796.85 440.71 797.23 440.79 797.49 440.6 797.7 440.1 797.72 440.03 797.95 439.85 798.32 439.66 798.55 439.62 798.85 439.58 799 439.85 799 440.15 798.88 440.54 798.71 440.73 798.37 440.92 797.73 441.1 797.39 441.31 797.43 441.61 797.91 441.78 798.46 441.93 798.91 442.01 798.92 442.44 798.88 442.73 798.84 443.1 798.85 444.14 798.76 444.71 798.66 445.04 797.72 445.71 796.95 445.98 796.53 446.19 795.74 446.53 795.05 446.74 794.46 447.02 793.9 447.29 793.25 447.59 792.61 447.8 792 448.14 791.17 448.65 791.03 448.76 790.29 449.35 789.23 449.8 788.73 450.1 788.04 450.39 787.38 450.78 786.62 451.18 785.82 451.41 785.32 451.55 784.81 451.65 783.87 451.62 783.12 451.41 782.57 451.1 782.08 450.75 781.38 450.55 780.51 450.63 780.22 450.72 780.02 450.85 779.82 451.19 779.64 451.39 779.59 451.65 779.64 451.9 779.82 452.1 780.1 452.21 780.8 453.36 781.15 453.99 781.32 454.6 781.71 455.34 782.97 456.79 783.24 457.25 784.17 458.63 784.39 459.39 784.43 459.88 784.66 460.6 784.51 461.31 784.04 462.3 783.49 462.69 782.34 462.55 781.84 462.3 781.15 462.03 779.82 461.78 779.56 461.73 779.22 461.76 778.69 461.9 778.33 461.94 777.9 462.02 777.38 462.27 777.04 462.5 776.85 462.73 776.78 462.82 776.74 463.15 776.82 463.7 777.01 464.39 777.39 465.09 778.51 466.62 778.88 467.19 779.09 467.78 779.32 468.84 779.42 469.21 779.45 469.66 779.4 470.11 779.32 470.46 778.84 471.23 778.52 471.58 778.47 471.64 778.23 471.85 777.77 472.14 777.36 472.18 777.05 472.07 776.62 471.57 776.64 471.24 776.66 471 776.76 470.68 776.87 470.21 776.86 469.88 776.63 469.25 776.27 468.81 776.1 468.68 775.88 468.57 775.58 468.41 775.24 468.22 774.81 468.05 774.48 467.97 773.56 467.79 773.13 467.75 772.81 467.73 772.28 467.69 771.7 467.72 771.21 467.83 770.56 468.13 770.3 468.38 770.08 468.69 770.07 469.17 770.11 469.57 770.4 469.93 770.6 470.36 770.88 470.96 770.93 471.3 770.95 471.46 770.89 471.84 770.87 472.29 770.91 472.83 770.86 473.27 770.75 473.78 770.68 474.06 770.62 474.31 770.61 474.87 770.61 475.34 770.62 475.59 770.63 475.87 770.65 476.31 770.76 476.57 770.96 477.03 771.07 477.27 771.28 477.99 771.33 478.2 771.32 478.73 771.31 478.79 771.22 479.08 770.94 479.52 770.48 479.72 770.13 479.72 769.67 479.72 769.02 479.61 768.68 479.56 768.45 479.51 767.49 479.52 766.73 479.56 766.12 479.57 765.76 479.58 765.01 479.61 764.61 479.64 764.22 479.68 763.9 479.71 763.28 479.76 762.85 479.78 762.54 479.8 762.22 479.85 761.83 479.9 761.32 479.95 761.01 480.01 760.65 480.07 759.93 480.26 759.4 480.41 758.73 480.67 758.23 480.89 757.63 481.18 757.12 481.55 756.91 481.73 756.54 482.1 756.19 482.42 755.99 482.62 755.81 482.85 755.52 483.52 755.43 483.79 755.24 484.42 755.13 484.67 754.98 485.16 754.9 485.41 754.81 485.8 754.63 486.29 754.38 486.97 754.28 487.24 754.02 487.92 753.94 488.19 753.87 488.77 753.8 489.14 753.77 489.54 753.78 490.04 753.77 490.26 753.94 490.99 754.16 491.45 754.31 491.7 754.82 492.24 755.05 492.44 755.54 492.81 755.89 493.02 756.28 493.27 756.86 493.54 757.23 493.67 757.53 493.78 758.19 494.04 758.26 494.06 758.88 494.24 759.3 494.41 759.65 494.59 760.25 494.81 760.55 494.89 760.79 495.01 761.31 495.21 761.92 495.53 762.2 495.68 762.88 496.05 764.4 497.25 764.69 497.6 764.85 498.2 764.91 498.42 764.81 499.42 764.82 500.21 764.88 501.21 765.03 502.75 765.08 503.13 764.88 503.78 764.6 504.45 764.01 505.29 763.15 506.24 762.78 507.07 762.61 508.28 762.47 508.49 761.43 509.72 761.02 510.6 761 511.29 761.39 512.71 760.29 514.14 759.58 514.56 757.6 515.7 755.81 516.96 754.68 517.97 753.11 519.11 753.04 519.13 751.95 519.43 750.17 519.49 748.03 519.8 746.7 520.32 744.92 521.11 742.87 521.93 740.97 522.77 739.27 522.97 738.17 522.01 737.37 521.83 736.98 522.02 736.66 522.13 Z"/>
<path d="M 749.97 399.57 722.26 424.56 716.7 429.69 716.49 429.13 716.05 428.29 716 428.19 715.79 427.97 715.52 427.97 715.46 427.76 715.31 427.69 715.23 427.82 715.19 428.17 715.12 428.36 715.13 428.47 714.59 428.9 714.5 428.6 714.51 428.14 714.55 428.07 714.51 427.7 714.28 427.43 713.97 427.24 713.66 427.22 713.42 427.44 713.55 427.68 713.88 427.86 714.05 427.91 713.87 428.07 713.56 428.23 713.53 428.24 713.33 428.23 713.31 428.04 713.27 427.96 713.26 427.93 713.17 427.79 712.93 427.64 712.6 427.6 712.09 427.65 711.57 427.66 711.23 427.77 711.14 427.8 711.12 427.9 710.98 428 710.97 428.21 711.1 428.57 711.11 428.66 711.01 428.74 710.81 428.79 710.52 428.8 710.11 429.08 710.07 429.32 710.09 429.59 710.24 429.86 710.26 429.98 709.82 430 709.27 429.86 708.16 428.93 707.97 428.75 707.97 428.8 707.97 428.8 707.97 429.1 707.96 431.31 707.96 432.36 707.96 432.37 707.99 434.67 708.03 441.82 697.61 441.9 695.91 441.88 695.13 441.88 677.98 441.98 676.16 441.99 676.14 438.55 676.08 433.87 672.7 433.89 668.78 433.91 668.76 431.2 660.9 431.24 660.9 431.24 660.73 431.24 644.64 431.3 629.17 431.33 629.08 431.33 629.04 424.58 629.02 419.52 629 417.06 628.13 417.06 623.46 417.07 621 417.08 620.94 402.79 589.4 402.76 589.36 389.23 589.36 388.53 585.37 388.49 573.52 388.4 573.54 381.4 573.56 374.25 573.54 367.06 573.53 365.49 573.53 364.35 573.52 363.05 573.52 359.87 573.48 354.9 565.87 354.91 565.86 352.51 562.37 352.52 558 352.52 542.11 352.44 542.11 352.44 541.07 352.43 540.05 352.42 539.05 352.4 537.8 352.39 537.08 352.38 527.94 352.29 527.2 352.29 526.38 352.3 526.38 352.26 526.69 323.74 526.77 309.46 526.82 255.1 526.82 251.7 527.54 252.09 528.77 252.49 529.04 252.58 529.77 252.79 530.48 252.98 531.71 253.47 532.69 253.66 535.42 253.87 536.13 254.06 536.28 254.36 535.8 255.15 535.57 255.44 535.38 255.7 535.4 255.96 535.69 256.23 536.84 255.76 538.13 255.66 538.72 255.95 539.01 256.51 539.2 257.04 539.1 257.27 538.97 257.61 538.33 257.61 538.19 257.61 537.53 258.08 537.11 258.35 537.15 259.38 537.63 259.46 538.44 258.72 539.07 258.5 539.51 258.78 539.78 259.54 540.15 260.2 540.2 260.4 540.3 260.82 540.37 261.49 540.38 261.6 540.49 262.24 541.03 262.37 542.38 261.63 542.49 261.57 542.93 261.33 543.14 261.15 543.26 261.06 544.13 260.47 544.47 260.24 544.79 260.05 545.27 259.89 545.58 260.08 545.62 260.45 545.52 260.7 545.35 260.85 545.33 260.88 545.22 260.98 544.58 261.18 543.93 261.33 543.41 261.54 543.33 262.12 543.48 262.13 544.02 262.18 544.83 262.22 545.52 262.69 545.07 263.35 544.92 263.73 544.69 264.3 545.09 264.65 545.65 265.22 546.26 266.03 547.17 266.17 547.26 265.81 547.22 265.16 547.18 264.54 547.55 264.44 548.03 264.63 548.09 264.78 548.13 264.89 548.06 265.16 547.99 265.45 547.93 265.67 547.72 266.75 547.69 267.04 547.61 268 548.14 268.24 549.03 267.69 549.99 267.09 550.98 266.67 551.61 266.9 551.65 267.37 551.34 267.9 551.35 268.13 551.35 268.29 551.35 268.38 551.36 268.71 551.97 268.45 552.07 267.71 552.63 266.98 553.15 266.97 553.47 267.06 553.57 267.78 553.95 268.16 555.3 268.88 555.35 269.14 555.41 269.47 555.16 269.71 555.04 269.83 554.48 269.75 554.04 269.34 553.66 269.22 553.52 269.19 553.39 269.34 553.17 269.59 553.04 269.73 553.37 270.07 553.52 270.22 554.27 270.98 555.33 271.37 556.01 270.79 556.59 270.26 557.09 270 557.44 270.22 557.71 270.79 557.62 271.13 557.52 271.56 557.56 271.73 557.69 272.24 558.13 272.2 558.58 271.71 559.11 271.82 559.73 272.28 560.09 272.6 560.44 272.79 560.8 273.22 561.26 273.11 561.53 272.64 561.8 272.55 562 272.62 562.11 272.75 562.1 272.87 562.05 273.32 561.72 273.94 561.37 274.68 561.33 274.91 561.32 274.95 561.31 275 561.33 275.04 561.64 275.58 562.21 276.06 562.43 276.34 562.61 276.57 562.77 276.92 562.29 277.38 562.04 278.04 561.63 279.08 561.75 279.29 561.92 279.57 562.34 279.32 562.65 278.85 562.78 278.44 563.13 278.04 563.67 277.94 564.14 278.08 564.77 278.45 564.88 278.68 565.02 278.98 565.06 279.06 564.56 279.1 564.08 279.15 563.64 279.34 563.27 279.46 563.23 279.48 562.85 279.68 563.08 280.02 563.1 280.03 563.69 280.27 564.21 280.36 564.52 280.04 564.6 279.72 565 279.74 565.29 280 565.42 280.14 565.53 280.25 565.73 280.47 566.12 280.7 566.79 280.98 567.23 281.3 567.25 281.34 567.67 281.95 568.27 283.59 568.42 284.45 568.42 284.46 568.82 284.67 569.28 284.21 569.25 283.53 569.5 283.38 569.84 283.45 569.91 283.57 570.07 283.81 570.29 284.03 570.82 284.58 570.96 284.73 571.49 285.27 571.55 285.46 571.62 285.7 571.65 285.8 571.58 285.83 571.22 285.98 571.04 286.06 570.54 286.2 570.31 286.27 570.29 286.29 569.9 286.67 570.25 286.93 570.9 286.91 571.17 287 571.22 287.08 571.3 287.21 571.34 287.24 571.63 287.44 572.22 287.64 572.3 287.66 572.31 287.66 572.76 287.53 572.9 287.06 573.26 286.85 573.56 286.93 573.84 287 573.95 287.27 573.72 287.49 573.45 287.98 573.71 288.13 573.9 288.23 574.44 287.85 574.96 287.74 575.08 287.84 575.3 288.02 575.84 288.74 575.95 288.58 576.13 288.32 576.28 287.98 576.7 287.81 577.11 287.73 577.14 287.79 577.22 288 576.91 288.49 576.16 288.87 575.91 289.4 575.99 289.79 576.42 289.9 576.45 289.91 576.95 290.19 576.98 290.25 577.1 290.49 577.52 290.76 577.68 290.76 577.9 290.76 579.14 290.68 579.74 290.79 579.76 290.85 579.85 291.17 579.6 291.53 579.24 291.72 579.01 292.04 579.1 292.32 579.43 292.36 579.48 292.31 579.74 292.09 579.97 291.72 580.2 291.36 580.72 291.09 581.18 291.24 581.5 291.54 581.81 291.94 581.8 292.1 581.79 292.24 581.78 292.76 581.77 292.85 581.76 292.86 581.4 293.26 581.15 293.66 580.9 294.08 580.79 294.27 580.96 294.47 581.48 294.62 582.01 294.73 582.24 294.82 582.4 294.89 582.41 294.94 582.42 295.11 582.28 295.53 581.77 295.62 581.45 295.81 581.29 296.42 581.33 297.06 581.46 297.12 581.85 297.32 582.25 296.93 582.46 296.38 582.77 295.96 583.06 296.09 583.25 296.42 583.29 296.48 582.88 297.23 582.52 297.74 581.82 298.26 582.27 298.91 582.81 298.96 583.02 298.98 583.1 299.78 583.5 300.21 584 300.13 584.05 300.09 584.36 299.76 584.67 299.38 584.94 299.21 585.38 299.15 585.55 299.36 585.47 299.64 585.44 299.72 585.36 300.11 585.17 300.79 585.48 301.23 585.98 301.74 586.34 302.15 586.59 302.66 586.26 302.81 585.9 303.13 585.67 303.68 585.84 303.87 585.99 304.04 586.66 303.98 587.37 304 587.92 303.76 588.31 303.5 588.68 303.5 588.74 303.69 588.79 303.86 588.69 304.08 588.6 304.27 588.33 304.59 588.31 304.92 588.33 305.26 588.42 305.4 588.5 305.52 588.73 305.63 588.96 305.52 589.13 305.18 589.25 304.78 589.46 304.23 589.6 304.15 589.81 304.19 589.92 304.36 590 304.57 590.42 305.01 590.58 305.11 590.76 305.04 591.25 304.87 591.69 304.55 592.06 304.38 592.35 304.33 592.57 304.21 592.67 304.17 592.78 304.14 592.95 304.15 593.18 304.14 593.27 304.14 593.32 304.17 593.37 304.22 593.41 304.31 593.46 304.45 593.53 304.57 593.62 304.67 593.63 304.67 593.73 304.7 593.83 304.68 593.93 304.61 594.05 304.56 594.17 304.54 594.35 304.53 594.45 304.54 594.52 304.6 594.6 304.75 594.71 304.99 594.73 305.07 594.83 305.47 594.88 305.69 594.8 305.79 594.73 305.89 594.43 305.94 593.99 305.82 593.79 305.54 593.6 305.37 593.27 305.22 593.25 305.21 592.94 305.16 592.57 305.21 592.39 305.29 592.28 305.45 592.26 305.57 592.47 305.76 592.79 305.95 593.17 306.17 593.6 306.33 593.88 306.51 593.99 306.64 594.57 307.33 594.9 307.86 594.99 308.02 594.96 308.16 594.96 308.19 594.86 308.28 594.65 308.37 594.29 308.48 594.18 308.51 594.02 308.57 593.82 308.66 593.7 308.84 593.7 309.02 593.65 309.3 593.39 309.84 593.38 310.09 593.4 310.28 593.4 310.32 593.42 310.49 593.42 310.67 593.56 310.85 593.82 310.9 594.29 310.78 594.67 310.83 594.91 311.05 594.97 311.26 594.91 311.46 594.81 311.57 594.64 311.57 594.33 311.55 594.08 311.53 594.03 311.52 593.64 311.61 593.48 311.73 593.38 312.05 593.37 312.37 593.34 312.64 593.47 312.86 593.57 312.94 593.69 313.05 593.91 313.29 594.02 313.45 594.16 313.64 594.47 313.81 594.52 313.82 594.7 313.82 594.86 313.7 595.01 313.35 595.02 313.02 594.97 312.74 595.16 312.57 595.35 312.52 595.51 312.54 595.66 312.6 595.74 312.67 595.79 312.82 595.77 312.96 595.74 313.14 595.69 313.49 595.72 313.96 595.67 314.11 595.65 314.17 595.34 314.21 595.18 314.23 595.07 314.24 594.85 314.34 594.21 315.19 594.18 315.48 594.36 315.69 594.58 315.78 594.65 315.76 594.88 315.7 595.13 315.76 595.35 315.93 595.36 316 595.36 316.01 595.38 316.11 595.16 316.24 595.04 316.31 594.5 316.42 593.8 316.9 593.51 317.3 592.72 318.24 592.83 318.63 592.96 318.75 592.99 318.76 593.73 318.92 593.93 319.07 593.97 319.16 594.03 319.29 593.95 319.58 593.92 319.7 593.9 319.72 593.54 320.14 593.85 320.5 594.07 320.77 594.19 320.92 594.26 321.09 594.26 321.19 594.26 321.22 594.15 321.43 594.04 321.57 594.02 321.58 593.58 321.67 593.39 321.85 593.27 321.96 593.29 322.02 593.39 322.28 593.75 322.31 594.45 322.01 594.82 321.87 595.36 321.98 596.13 322.12 597.08 322.38 597.55 322.63 597.85 322.81 597.98 322.98 598.03 323.14 598.02 323.32 597.82 323.59 597.78 323.65 597.41 323.91 597.41 323.92 597.14 324.04 597.06 324.08 596.71 324.24 596.63 324.4 596.59 324.61 596.63 324.84 596.68 325.15 596.74 325.39 596.69 325.5 596.39 325.63 596.13 325.81 595.9 326.07 595.91 326.34 596 326.59 596.21 326.77 596.24 326.77 596.51 326.79 597.34 326.45 597.98 326.48 598.13 326.39 598.1 326.22 597.94 326.06 597.77 325.77 598.07 325.42 598.39 325.47 598.78 325.52 599.45 325.65 599.99 325.66 600.58 325.67 601.4 325.5 601.63 325.33 601.53 325.15 601.3 324.92 601.19 324.78 600.59 324.41 598.88 323.89 598.54 323.78 598.38 323.63 598.36 323.46 598.62 323.3 598.93 323.2 599.19 323.16 599.6 323.13 599.84 323.08 599.98 323.05 600.62 322.94 601.3 322.79 601.81 322.68 602.36 322.66 602.62 322.62 602.81 322.64 602.97 322.75 603.07 322.82 603.24 323.07 603.34 323.23 603.41 323.45 603.57 323.6 603.91 323.68 604.38 323.65 604.72 323.44 604.88 323.18 604.65 322.78 604.52 322.46 604.85 322.22 605.25 322.31 605.71 322.57 605.8 323.18 605.74 323.86 605.76 324.37 605.86 324.5 605.94 324.62 606.22 324.8 606.49 324.81 606.68 324.65 607.08 324.29 607.44 323.78 607.71 323.32 607.99 323.32 608.19 323.35 608.33 323.58 608.49 323.91 608.87 324.79 609.09 325.16 609.29 325.49 609.47 325.88 609.47 326.1 609.35 326.29 609.02 326.42 608.38 326.5 608.2 326.51 608 326.8 608.13 326.92 608.31 327.08 608.69 327.14 609.32 327.13 609.79 327.25 610.28 327.45 610.97 327.64 612.09 327.81 613.33 327.95 614.11 327.95 614.49 327.82 614.45 327.57 614.31 327.43 614.04 327.11 613.97 326.82 614.11 326.64 614.3 326.57 614.5 326.61 614.75 326.82 614.89 327.06 615.23 327.22 615.44 327.19 615.62 327.07 615.63 326.81 615.77 326.6 615.99 326.44 616.19 326.47 616.4 326.55 616.53 326.72 616.52 326.89 616.19 327.28 616.13 327.64 616.25 327.82 616.52 327.91 616.85 327.83 617.13 327.66 618.25 326.77 618.52 326.69 618.79 326.83 619.06 327.05 619.42 328 619.52 328.24 619.66 328.46 619.75 328.61 619.8 328.69 619.96 328.93 620.15 329.27 620.38 329.35 620.61 329.21 621.34 328.53 621.99 328.4 622.33 328.43 622.44 328.52 622.44 328.79 622.39 328.92 622.16 329.45 622.07 329.68 622.27 329.77 622.47 329.8 622.67 329.75 622.89 329.49 623.02 329.2 623.11 328.83 623.29 328.67 623.52 328.71 624.45 329.3 624.63 329.46 624.65 329.47 624.8 329.61 625.18 329.77 625.43 329.67 625.65 329.33 625.9 329.12 626.27 328.97 626.58 328.65 626.83 328.13 627.14 327.91 627.33 327.91 627.41 327.99 627.47 328.23 627.42 328.41 627.35 328.66 627.49 328.96 627.63 329.06 627.93 329.28 628.27 329.46 628.53 329.43 628.66 329.34 628.7 329.13 628.58 328.64 628.43 327.94 628.53 327.63 628.7 327.47 628.85 327.43 629.02 327.49 629.2 327.64 629.5 327.82 630.13 328.35 630.61 328.38 631.13 327.7 631.36 327.68 631.56 327.81 631.72 328.01 631.92 328.38 632.01 328.42 632.23 328.53 632.82 328.96 633.26 329.26 633.72 329.43 634.04 329.58 634.1 329.72 634.06 329.89 634 330.09 633.62 330.53 633.76 330.7 633.83 330.79 633.94 330.94 634.13 331 634.29 330.99 634.54 330.72 634.68 330.6 634.88 330.57 635.1 330.59 635.26 330.67 635.35 330.9 635.44 331.46 635.57 331.71 635.71 331.95 635.9 332.17 636.03 332.42 636.01 332.56 635.79 332.72 635.49 332.69 634.82 332.43 634.29 332.26 634.15 332.29 634.1 332.43 634.09 332.79 634.36 333.15 634.42 333.47 634.3 333.66 634.07 333.72 633.77 333.68 633.46 333.76 633.46 334 633.69 334.22 633.8 334.32 633.99 334.43 634.03 334.44 634.25 334.57 634.48 334.73 634.53 334.92 634.46 335.12 634.21 335.15 634.09 335.14 633.73 335.11 633.29 335.1 632.81 335.16 632.78 335.37 632.85 335.54 633.21 335.93 633.72 336.27 634.51 336.49 635.02 336.64 635.6 336.77 635.79 336.85 635.83 337.1 635.67 337.51 635.43 337.85 635.16 338.3 634.95 338.63 634.91 339.23 635.07 339.45 635.09 339.48 635.23 339.68 636.03 340.06 636.79 340.64 637.07 340.86 636.87 342.06 637.13 342.59 637.39 342.83 637.99 342.97 638.19 343.12 638.29 343.26 638.18 343.57 637.62 344.04 637.5 344.34 637.54 344.62 637.75 345 637.89 345.1 638.05 345.21 638.43 345.26 638.74 345.32 638.91 345.52 639.28 345.79 639.7 345.52 640.04 345.36 640.38 345.49 640.48 346 640.42 346.48 640.3 346.51 640.26 346.51 639.05 346.77 638.4 347.07 638.05 347.4 638.3 347.68 638.82 347.98 639.38 348.11 639.85 348.47 639.83 348.56 639.59 348.82 639.39 349.12 639.31 349.39 639.25 349.58 639.26 349.78 639.52 350.16 639.77 350.42 640 350.58 639.96 350.77 639.84 350.95 639.58 351.09 638.98 351.12 638.35 351.02 637.76 350.74 637.25 350.52 637.03 350.56 636.9 350.59 636.79 350.88 636.9 351.46 637.03 351.69 637.45 351.83 638.7 351.95 639.26 352.04 639.64 352.26 639.67 352.49 639.69 352.65 639.7 352.81 639.8 352.99 640.13 353.06 640.49 353.2 640.72 353.46 640.71 353.75 640.62 354.26 640.68 354.61 640.85 354.76 640.85 354.76 640.85 354.76 640.92 354.84 641.33 355.05 641.83 355.36 642.49 355.57 642.72 355.69 643.03 355.84 643.17 355.98 643.22 356.54 643.31 356.9 643.75 357.24 644.15 357.55 644.26 357.57 644.53 357.61 644.88 357.55 645.04 357.04 645.83 356.17 646.06 355.97 646.31 355.94 646.46 356.08 646.71 356.49 646.89 356.9 647.04 357.02 647.31 357.23 647.64 357.27 647.95 357.19 648.26 356.93 648.6 356.73 648.82 356.47 649.08 356.19 649.33 355.94 649.74 355.6 650.18 355.26 650.66 354.84 650.99 354.54 651.19 354.54 651.43 354.95 651.57 355.25 651.49 355.65 651.54 355.87 651.44 356.71 651.41 356.99 651.4 357.14 651.49 357.78 651.88 357.93 652.18 357.82 653.36 357.26 653.63 357.21 653.81 357.33 654 357.63 654.14 358.13 654.39 358.41 654.77 358.35 655.69 358.37 656.04 358.49 656.26 358.67 656.53 359.12 656.78 359.42 657.14 359.46 657.62 359.38 658.06 359.15 658.75 359.09 659.15 359.41 659.82 359.59 660.15 359.72 660.37 359.59 660.13 359.02 659.77 358.29 659.96 358.09 660.41 357.95 661.1 357.74 661.63 357.74 661.99 357.84 662.26 358.13 662.43 358.3 662.59 358.26 662.96 358.11 663.19 357.84 663.39 357.67 663.57 357.68 663.75 357.8 663.92 358.11 664.16 358.32 664.39 358.36 664.56 358.26 664.87 357.77 665.36 357.43 665.84 357.29 666.41 356.99 667.19 356.52 668.02 355.98 668.48 355.79 668.77 355.75 669.15 355.82 669.46 355.98 669.86 356.35 670.24 356.25 671.58 355.16 671.59 354.96 671.48 354.76 671.29 354.64 670.66 354.3 670.59 354.15 671.03 353.25 671.31 352.95 671.5 352.54 671.92 352.29 672.46 352.39 672.99 352.87 673.31 353 673.58 352.98 673.76 352.78 673.93 352.3 674.01 351.52 674.2 351.33 674.41 351.41 674.91 351.58 675.55 351.63 676.68 351.53 677.59 351.54 678.23 351.63 678.6 351.9 678.74 352.01 678.98 352.26 679.1 352.46 679 352.75 678.85 352.94 678.57 353.11 678.44 353.18 677.85 353.27 677.29 353.11 676.76 353.09 676.58 353.08 676.27 353.46 676.17 353.91 676.36 354.21 676.56 354.35 676.72 354.46 677.12 354.67 677.56 354.87 678.38 355.39 679.04 355.95 679.76 356.48 680.3 356.25 682.1 355.48 682.41 355.59 682.57 356.2 682.59 356.82 682.48 357.02 682.32 357.29 681.9 357.26 681.3 357.59 680.98 357.7 680.67 357.89 680.42 358.06 680.3 358.25 680.36 358.53 680.48 358.55 680.86 358.61 681.34 358.36 682.17 358 682.65 357.97 683.04 358.12 683.43 358.36 683.76 358.6 684.14 358.57 684.66 358.33 685 358.3 685.19 358.39 685.36 358.56 685.36 358.85 685.2 359.11 684.68 359.36 684.59 359.7 684.84 359.89 684.93 359.96 685.37 359.92 685.85 359.5 686.25 359.48 686.26 359.63 686.29 359.95 686.44 360.27 686.93 360.34 687.37 360.59 687.95 360.88 688.15 361.16 688.35 361.43 688.92 361.84 689.18 362.22 689.62 362.78 689.88 363.29 690.36 363.25 690.96 362.83 691.97 362.63 693.17 362.15 693.92 361.88 694.01 362.07 694.11 362.28 694.37 362.54 694.66 362.81 694.79 362.94 694.93 363.09 695.13 363.31 695.31 363.36 695.7 363.46 696.24 363.19 696.85 363.15 696.87 363.3 696.91 363.53 696.85 364.06 696.9 364.4 697.13 364.41 697.51 364.24 698.53 364.12 699.09 363.89 699.73 363.47 700.28 363.28 700.57 363.43 700.64 363.61 700.64 363.92 700.73 363.99 700.82 364.07 701.02 364.08 701.52 364.08 702.38 364.07 702.97 364.2 703.26 364.45 703.68 364.82 703.96 365.07 704.22 365.3 704.43 365.41 704.68 365.54 704.77 365.59 705.24 365.85 705.75 366.15 705.99 366.28 705.99 366.29 706.17 366.39 706.35 366.54 706.5 366.67 707.18 366.93 707.62 367.23 707.74 367.35 707.78 367.46 707.77 367.62 707.79 367.9 707.89 368.13 708.13 368.66 708.31 369.01 708.4 369.17 708.6 369.55 709.26 370.62 709.46 371.07 709.63 371.58 709.79 371.97 709.83 372.06 709.89 372.22 710.31 372.61 711.87 372.56 712.27 372.77 712.26 372.92 712.22 373.47 712.31 373.84 712.34 374.1 712.43 374.2 712.52 374.31 713.26 374.21 713.55 374.22 713.97 374.36 714.18 374.51 714.24 374.78 714.12 375 714.04 375.15 713.95 375.38 714.02 375.61 714.49 376.02 714.61 376.7 714.68 376.8 714.98 377.26 715.31 377.41 715.77 377.5 716.03 377.72 716.32 377.76 716.91 378.11 717.37 378.3 717.81 378.37 718.35 378.25 718.71 378.42 719.11 378.63 720.33 378.69 721 378.78 721.34 379.02 721.95 379.25 722.13 379.52 722.25 379.7 722.33 379.86 722.66 380.52 722.75 381.11 722.89 381.58 723.08 382.14 723.12 382.26 723.12 382.84 723.23 383.3 723.25 383.73 723.28 384.07 723.37 384.6 723.57 384.85 723.64 384.94 723.96 385.22 724.5 385.46 724.74 385.71 724.79 385.76 724.9 385.87 725.14 386.23 725.54 386.26 726.02 386.15 726.27 386.26 726.65 386.52 727.01 386.7 727.62 386.79 728.08 386.96 728.66 387.14 729.31 386.87 729.67 386.93 730.05 386.87 731.28 386.48 732.37 386.3 732.83 386.2 733.29 386.2 733.58 386.26 733.76 386.35 733.82 386.48 733.78 386.68 733.53 386.8 733.3 387.11 733.05 387.35 732.93 387.62 732.9 387.89 732.89 387.93 732.88 388.07 732.96 388.73 733.14 388.97 733.39 389.01 733.97 388.84 734.73 388.74 734.9 388.81 734.87 388.94 734.54 389.53 734.72 389.68 734.91 389.64 735.5 389.3 736.08 388.91 736.43 388.92 736.74 389.03 737 389.31 737.23 389.91 737.35 390.34 737.55 390.92 737.56 391.06 737.6 391.75 737.75 391.99 737.86 392.16 738.14 392.33 738.51 392.41 738.94 392.63 739.43 393.21 739.31 393.39 739.2 393.57 739.03 393.71 738.8 393.9 738.57 394.09 738.58 394.24 738.58 394.63 738.94 394.71 739.25 394.74 739.33 395.04 739.45 395.48 739.5 395.58 739.78 396.23 739.86 396.42 739.81 396.74 739.78 396.91 739.73 397.1 739.73 397.11 739.68 397.31 739.64 397.52 739.68 397.63 739.7 397.67 739.95 398.31 740.03 398.49 740.64 398.96 741.15 399.43 741.71 399.72 742.27 399.38 742.61 399.25 742.98 399.32 743.11 399.4 743.32 399.52 743.59 399.58 744.4 399.44 744.99 399.33 745.38 399 745.59 398.52 745.73 398.09 746.07 397.95 746.34 398.05 746.53 398.24 746.81 398.58 747.04 398.66 747.33 398.58 747.79 398.33 747.82 397.68 747.83 397.52 748.01 397.42 748.29 397.48 748.6 397.79 748.88 398.07 749.27 398.02 749.59 398 749.85 398.08 750.09 398.45 749.93 399.23 749.94 399.33 749.97 399.57 Z"/>
<path d="M 526.82 251.7 526.82 255.1 526.77 309.46 526.69 323.74 525.57 323.74 525.08 323.74 523.49 323.71 522.75 323.7 477.71 323.26 434.88 322.78 433.93 322.77 432.37 322.73 431.71 322.73 428.66 322.7 417.41 322.57 415.83 322.55 414.43 322.52 351.98 321.64 353.08 235.27 321.9 234.84 321.9 234.78 322 220.45 312.58 220.3 277.59 219.94 275.63 219.94 271.63 219.94 244.51 219.99 242.08 220 203.88 219.96 188.63 219.74 188.9 205.02 189.34 181.77 189.98 145.84 191.36 119.31 183.01 119.34 165.93 119.37 117.24 119.45 112.14 119.33 119.06 111.28 121.11 108.91 171.99 49.74 171.97 4.72 172.82 2.75 173.24 1.36 174.07 1 175.19 1.48 175.53 1.67 175.9 2.06 176.09 2.27 176.39 2.73 176.69 3.37 176.77 3.67 176.28 4.27 175.94 4.8 175.9 5.55 176.11 6.22 176.17 6.41 176.73 6.57 177.98 6.69 178.2 6.72 179.52 7.17 180.46 7.36 181.21 7.66 181.78 7.88 182.38 8.6 182.6 8.8 182.72 8.9 183.62 9.16 184.52 9.46 185.35 9.69 186.13 9.83 186.63 9.92 187.35 10.07 188.33 10.07 188.62 10.15 189 10.25 189.57 10.18 190.21 10.07 190.59 10.14 190.8 10.25 191.04 10.37 191.6 10.59 191.83 10.78 191.87 11.08 192.21 11.49 193.72 12.22 194.8 12.73 195.69 13.05 196.6 13.36 197.23 13.6 197.31 13.64 198.08 13.99 199 14.53 199.86 15.09 200 15.73 199.52 16.3 198.67 16.9 198.16 17.2 197.49 17.59 197.22 18.29 198.38 18.87 199.67 18.86 200.32 18.84 201.23 18.68 202.01 18.33 203.08 17.59 204.17 17.31 204.06 18.55 204.19 19.77 204.14 20.79 204.29 22.04 206.03 21.51 206.51 21.24 206.86 21.11 207.34 20.99 207.69 21.03 208.23 20.91 209.3 20.48 212.09 19.61 212.79 19.58 213.97 19.5 214.16 20.31 213.87 21.2 213.63 21.49 213.34 21.99 213.02 22.56 212.49 23.3 212.2 24.36 213.41 23.81 215.65 22.1 216.59 21.38 217.06 21.25 217.55 21.72 217.98 22.56 218.22 22.94 218.26 23.15 218.32 23.47 218.59 24.02 218.91 24.81 219.4 25.18 220.08 25.21 220.94 25.11 221.69 25.05 222.28 24.84 222.72 24.69 223.55 24.6 224.09 24.52 224.85 24.5 225.86 25.12 226.21 25.62 226.54 25.89 226.71 25.97 226.9 26.17 227.09 26.32 227.51 26.53 227.91 26.62 228.39 26.7 228.79 26.09 228.44 24.85 228.14 23.94 228.49 23.58 229.48 23.98 229.77 24.21 230.27 24.31 230.68 24.35 231.15 24.22 231.62 24.19 232.78 24.74 232.81 25.97 232.93 26.63 233.03 26.95 233.11 27.33 233.62 28.19 233.99 28.62 234.6 29.06 234.96 29.42 235.71 30.16 236.33 30.7 236.52 30.84 237.27 30.47 238.04 30.04 238.41 29.84 238.72 29.68 238.96 29.38 239.31 29.15 240.08 28.67 240.64 28.69 241.21 30 241.25 31.59 240.62 32.2 239.07 31.96 238.67 32.56 238.88 33.9 239 34.35 239.13 34.82 239.35 35.14 239.71 35.59 240.53 36.18 241.07 35.86 241.34 35.33 241.62 34.85 241.76 34.56 242.05 34.16 242.28 33.76 242.45 33.28 242.69 32.77 243.04 31.95 243.65 31.02 243.97 30.96 244.16 31.14 244.67 32.01 244.82 32.42 244.96 32.96 245.14 33.61 245.19 34.11 245.19 34.79 245.14 35.6 245.15 36.27 245.21 36.29 245.88 36.56 247.24 36.71 248.24 36.52 248.61 36.39 249.1 36.22 249.9 36.1 250.39 35.89 250.8 35.97 251.09 36.25 250.98 36.6 250.87 36.97 250.27 38.04 250.02 38.35 250.11 38.59 251.13 38.56 252.2 38.18 252.62 38.03 253.28 37.74 253.73 37.65 254.21 37.51 254.62 37.41 255.15 37.29 255.57 37.26 255.94 37.99 256.04 38.33 256.24 38.59 256.68 38.67 257.12 38.99 257.54 39.54 258 39.99 258.67 40.54 259.51 40.35 260 39.93 259.99 39.11 259.98 38.63 259.98 38.02 260.02 37.75 260.54 37.38 261.43 37.1 262.18 36.99 263.27 37.26 263.73 37.43 264.2 37.83 264.51 38.44 264.66 38.83 264.84 39.26 265.02 39.55 265.14 39.7 265.34 39.94 265.56 40.27 265.65 40.39 265.95 40.76 266.06 40.85 266.61 41.34 267.58 41.27 268.19 40.99 268.57 40.85 269.03 40.79 269.31 40.79 269.64 40.77 269.75 40.78 270.38 40.81 270.64 40.99 270.85 41.13 271.17 41.52 270.65 41.61 270.25 41.67 269.36 41.78 268.84 42.46 268.64 42.93 268.59 43.07 268.45 43.62 268.38 44.36 270.28 44.86 270.82 45.15 271.55 45.22 272 45.2 272.4 45.21 272.92 45.26 273.34 45.33 274.71 45.82 274.66 46.17 274.13 46.48 272.76 46.09 272.12 46 271.78 46.21 271.7 46.87 271.54 47.75 271.55 48.06 271.77 48.49 272.08 49.17 272.92 49.97 273.4 51.03 273.29 51.64 273.27 51.78 273.31 51.87 273.53 52.31 273.73 52.7 273.91 53.05 274 53.02 274.79 52.71 275.14 52.77 275.45 53.34 275.66 53.74 276.25 54.16 277.34 54.56 278.44 54.66 279.14 54.63 279.88 54.54 279.95 54.98 279.96 55.03 279.97 55.14 280.01 55.39 280.12 55.66 280.62 56.11 281.27 56.14 281.9 56.29 283.07 56.4 283.74 56.12 284.28 55.16 284.42 54.71 284.86 54.43 285.96 54.72 286.54 54.67 287.21 54.64 287.76 54.68 287.8 54.84 287.9 55.37 287.92 55.46 287.93 56.47 288.03 57.23 288.16 58.57 288.34 58.9 288.66 58.77 289.3 58.35 289.78 57.92 290.46 57.61 290.92 57.27 291.38 57.12 291.8 57.26 292.06 57.51 292.16 58.02 292.21 58.64 292.2 59.43 291.72 60.29 291.22 61.08 290.73 61.81 290.44 62.26 290.14 62.94 289.92 63.48 290.44 64.24 291.38 65.06 292.36 65.65 293.09 65.99 293.76 65.96 294.43 65.79 294.95 65.44 296.1 64.49 296.48 64.41 296.74 64.65 296.98 64.86 296.94 64.96 296.93 65 296.64 65.82 295.43 66.2 295.39 66.21 295.38 66.23 295.02 66.82 295.32 67.17 295.96 67.37 296.63 67.74 297.48 68.05 298.06 68.26 298.91 68.41 299.64 68.59 300.51 68.74 301.21 68.84 301.52 69.26 301.62 69.4 301.72 69.53 301.84 70.54 301.42 71.45 301.02 72.09 301.38 72.97 301.67 73.42 302.2 74.19 302.38 74.45 302.65 74.71 303.09 75.08 303.55 75.4 303.89 75.41 304.16 75.8 304.42 75.7 304.65 75.89 305.17 76.37 305.57 76.96 305.83 77.22 305.89 77.49 306.05 77.58 306.24 77.57 306.79 78.06 307.3 78.6 307.66 79.08 308.05 79.64 308.46 80.24 308.85 80.75 309.15 81.38 309.55 82.14 309.5 82.74 310.32 83.66 311.33 84.3 312.17 84.43 312.58 84.18 313.16 83.57 313.61 83.36 313.98 83.63 314.13 83.98 314.49 84.44 314.91 84.83 315.32 85.15 315.9 85.4 316.64 85.44 317.22 85.34 317.8 85.1 318.27 85.01 318.89 84.94 319.81 84.99 320.38 84.86 320.76 84.57 321.19 84.55 321.77 84.48 322.51 84.41 323.43 84.51 323.72 84.59 323.97 84.75 323.83 84.95 323.82 85.23 324 85.54 324.01 85.75 323.84 86.06 323.71 86.39 323.7 86.54 323.7 86.87 323.82 87.33 323.87 87.44 324.05 87.86 324.2 88.52 324.27 88.65 324.4 88.92 324.87 89.16 325.24 88.93 325.25 88.33 325.28 87.55 325.46 87.35 325.69 87.3 325.8 87.12 325.83 86.26 326.19 85.85 326.66 85.66 327.03 86 327.57 86.81 327.68 86.97 327.69 87.2 327.69 87.32 327.73 87.61 327.81 87.81 327.94 87.91 328.25 88.14 328.51 88.16 328.94 88.42 329.52 88.69 330.19 88.82 331.34 88.45 332.17 88.2 332.69 88.31 333.12 88.31 333.49 88.07 333.51 87.72 334.53 87.44 336.81 86.79 337.69 86.64 338.32 86.71 338.99 87.13 339.04 87.46 339.24 87.75 339.85 88.32 340.24 88.57 340.6 88.77 340.9 88.73 341.27 88.48 341.4 87.8 341.32 87.26 341.5 87 341.53 86.65 341.73 86.2 341.99 85.93 342.27 85.85 342.78 85.74 343.02 85.81 343.13 85.91 343.24 86.01 343.82 86.39 343.85 86.73 343.76 87.09 343.94 87.36 344.3 87.9 344.54 88.63 344.57 89.5 344.74 89.67 344.75 89.68 345.12 90.08 345.39 90.42 345.77 90.38 346.19 90.01 346.63 89.51 346.92 89.16 347.56 88.85 348.1 89.28 348.43 89.58 348.85 89.96 348.89 90.4 349.21 90.61 349.58 90.92 350.18 91.09 350.7 91.14 351.14 91.2 351.38 91.42 351.67 91.56 351.94 91.39 352.17 91.34 352.38 91.4 352.53 91.77 352.54 91.78 352.7 91.95 353.02 92.09 353.08 92.34 352.91 92.75 352.45 93.09 352.06 93.32 351.71 93.48 351.36 93.87 350.94 94.49 350.96 94.85 351.7 95.36 351.94 95.96 351.91 96.47 351.79 97.13 351.54 97.57 351.3 97.87 351.36 98.09 351.92 98.54 352.34 98.67 352.95 98.98 353.78 99.87 354.12 100.43 354.13 100.53 354.16 100.69 354.33 100.87 354.63 100.85 355.14 101.39 355.22 101.73 355.82 101.77 355.93 101.54 355.99 100.87 356.83 100.1 357.68 99.83 358.64 99.7 359.22 99.72 359.37 99.94 359.11 100.37 358.71 100.87 358.66 101.09 358.48 101.37 357.97 101.82 357.52 102.1 356.94 103.02 356.88 103.33 356.77 103.71 357.1 103.91 357.57 103.78 358.13 104.08 358.82 104.49 359.16 104.53 359.58 104.76 359.92 105.27 359.91 105.72 360.05 106.02 360.32 106.35 360.68 106.71 360.68 106.71 360.88 107.13 360.82 107.4 360.57 107.7 360.28 107.87 359.94 107.88 359.8 107.81 359.56 108 359.3 108.33 359.03 108.61 358.89 108.88 358.9 109.61 359.13 109.99 359.15 110.76 359.39 111.33 359.77 111.84 360.12 112.16 360.66 112.19 361.36 112.06 361.76 111.74 362.29 111.71 362.49 111.9 362.38 112.18 362.36 112.58 362.28 112.73 361.99 112.8 361.74 112.85 361.46 112.76 361.22 112.79 360.85 113.05 360.83 113.33 361.03 113.6 361.37 113.94 361.45 114.02 361.46 114.04 361.49 114.38 361.63 115 361.64 115.16 361.66 115.64 362.37 116.37 362.82 116.7 363.59 117.41 363.74 117.34 365.35 118.46 366.55 119.21 367.28 119.73 367.54 119.76 367.76 119.66 367.82 119.43 367.67 119.27 367.66 119.26 367.47 118.97 367.51 118.83 367.51 118.8 367.73 118.51 368 118.27 368.34 118.15 368.76 118.58 369.13 119.06 369.21 119.26 369.35 119.61 369.25 120.27 369.15 120.57 369.25 121.03 369.33 121.49 369.52 121.89 370.03 122.27 370.59 122.54 371.19 122.76 371.79 122.84 372.37 123.02 372.6 123.14 372.51 123.43 372.17 123.88 371.81 124.24 371.81 124.44 371.93 124.83 372.1 125.26 372.39 125.72 372.87 126.11 373.46 126.3 373.8 126.36 374.08 126.27 374.58 126.63 375.19 127.18 375.92 127.77 376.83 128.48 376.95 128.89 376.82 129.4 376.78 129.78 376.94 129.9 377.18 129.88 377.47 129.58 377.77 129.17 378.67 128.53 379.29 128.11 379.71 128.25 379.9 128.45 379.91 128.8 379.62 129.2 379.64 129.58 379.38 129.94 379.39 130.21 379.46 130.46 379.64 130.74 379.87 130.87 380.9 131.25 381.46 131.45 381.47 131.45 381.56 131.59 381.52 131.71 381.07 131.88 380.79 132.11 380.6 132.77 380.63 133.13 380.76 133.33 381.07 133.41 381.28 133.56 381.65 133.83 382.04 133.92 382.39 133.91 382.8 133.81 383.22 133.64 383.62 133.24 383.88 132.81 384.33 132.52 384.77 132.44 385.17 132.62 385.2 132.63 385.16 132.84 384.9 133.03 384.58 133.2 384.27 133.56 384.19 133.85 384.2 134 384.2 134.26 384.38 134.58 384.42 134.65 384.45 134.79 384.52 135.1 384.59 135.42 384.78 135.61 384.99 135.76 385.23 135.76 385.7 135.79 386.19 136.07 386.65 136.48 387.28 136.98 387.47 137.06 387.7 136.91 388.15 136.53 388.63 136.67 389.31 137.2 389.98 137.7 390.11 137.87 390.3 138.11 390.33 138.15 390.23 138.37 390.1 138.49 390.09 138.5 390.01 138.62 390.06 138.74 390.17 138.83 390.31 138.83 390.57 138.72 390.82 138.74 390.89 139 390.91 139.57 390.9 140.11 390.96 140.47 390.96 140.48 391.06 140.81 391.48 141.38 391.63 141.54 391.79 141.56 392.08 141.51 392.29 141.36 392.3 141.22 392.22 141.13 392.06 140.93 392.07 140.72 392.07 140.63 392.21 140.38 392.31 140.19 392.47 139.89 392.45 139.37 392.46 139.15 392.46 139.09 392.48 139.08 392.57 139.01 392.79 139 392.98 139.07 393.47 139.26 393.93 139.56 394.08 139.86 394.21 140.1 394.27 140.31 394.28 140.45 394.29 140.57 394.22 141.02 394.08 141.5 394.03 141.73 393.81 142.07 393.64 142.4 393.33 142.61 393.34 142.8 393.67 143.02 393.99 143.06 394.31 143.01 394.69 142.93 395.05 142.88 395.46 142.82 395.78 142.7 396.3 142.68 396.57 142.7 396.8 142.78 396.75 143.33 396.55 143.56 396.28 143.78 395.69 143.87 395.33 143.9 394.99 143.88 394.76 143.86 394.55 143.77 394.26 143.79 394.18 143.83 394.06 143.89 393.67 144.29 393.54 144.46 393.52 144.48 393.5 144.56 393.44 144.73 393.44 144.83 393.42 145.04 393.43 145.22 393.48 145.37 393.56 145.41 393.65 145.41 393.7 145.41 393.81 145.49 394.14 145.49 394.5 145.48 394.64 145.48 394.76 145.49 394.8 145.49 394.91 145.54 395.09 145.69 395.12 145.72 395.16 145.78 395.21 145.84 395.33 145.99 395.44 146.12 395.76 146.3 395.77 146.3 395.97 146.26 396.13 146.46 396.11 146.71 395.54 147.38 395.19 147.77 395.04 147.94 395.52 148.21 395.98 148.16 396.26 148.13 396.33 148.12 397.14 147.71 397.68 147.48 398.17 146.98 399.19 147.21 399.58 147.93 399.87 148.42 399.99 148.9 400.63 149.13 400.88 149.14 401.09 149.15 401.72 149.15 402.29 149 402.71 149.01 403.1 148.95 403.7 148.88 404.06 148.98 404.05 149.17 404.05 149.47 403.84 149.98 403.83 150.83 403.85 151.3 404.17 151.39 404.63 151.03 405.09 150.78 406.09 151.05 408.45 151 409.78 151.03 410.69 150.98 411.69 151.14 411.97 151.34 412.25 151.88 411.79 152.04 411.25 152.01 410.64 152.36 410.44 152.79 410.92 154 411.38 154.46 412.36 155.73 412.63 156.38 413.33 157.17 413.95 157.5 414.32 157.26 414.66 156.35 414.79 156.14 415.47 156.15 416.75 156.61 417.37 156.81 418.77 157.11 421.05 157.18 421.47 157.12 421.82 156.94 422.21 156.73 422.63 156.6 423.13 156.56 423.34 156.93 423.18 158 421.49 159.53 421.34 159.67 421.34 160.14 421.81 160.51 422.17 160.79 422.99 161.68 423.51 161.78 423.86 161.54 423.97 160.61 424.74 160.22 425.43 160.32 425.72 160.6 425.82 160.92 426.1 161.76 425.99 162.53 425.74 162.96 425.64 163.13 425.7 163.98 426.15 164.4 427.01 164.61 427.83 164.11 428.17 164.54 428.07 165.24 428.35 165.67 428.47 165.66 428.96 165.6 429.29 165.23 430.02 164.93 430.67 165.03 431 165.07 431.14 165.09 432.64 165.4 433.74 165.25 434.68 164.76 435.11 164.75 435.7 164.49 436.46 164.32 438.13 163.63 438.4 163.42 438.69 163.6 438.99 163.96 438.97 164.67 438.15 165.53 438.13 165.56 437.97 165.86 437.34 167.06 437.1 167.53 436.87 167.97 436.59 168.74 436.35 169.25 436.47 169.35 436.6 169.45 436.81 169.41 437.49 169.28 438.06 169.31 438.84 169.5 439.16 169.6 439.27 169.75 439.26 170.02 438.55 170.43 437.34 171.12 437.3 171.39 437.57 171.58 438.65 171.49 439.48 171.59 440.37 171.64 441.04 171.8 441.71 172.12 441.91 172.26 442.16 172.43 442.42 172.6 442.64 173 442.85 173.4 443.43 173.88 444.07 173.95 444.26 173.89 445.05 173.67 446.07 173.42 446.02 173.12 445.72 172.92 444.6 172.97 443.65 172.19 443.86 171.92 444.75 171.48 445.09 171.24 445.27 171.12 445.71 171.23 446.61 172.14 447.08 172.73 447.48 173.24 447.88 173.32 448.36 172.92 448.81 172.55 449.26 172.46 449.75 172.85 450.12 173.44 450.22 173.61 450.44 173.99 451.61 174.87 452.55 175.41 452.7 175.66 452.89 175.95 453.59 176.33 454.36 176.39 454.51 176.41 455.29 176.47 455.61 176.21 455.61 175.33 455.26 174.11 455.28 173.1 455.96 172.29 456.9 172.36 457.35 172.53 458.67 173.03 458.69 173.04 459.16 173.43 459.73 174.05 460.05 174.33 460.15 174.43 460.66 175.01 460.73 175.38 460.86 176 461.61 176.9 462.25 177.42 462.74 177.99 462.84 178.17 463.18 178.84 463.15 179.39 463.54 180.01 464.13 180.58 465.18 180.6 465.66 180.89 465.79 180.93 466 180.99 465.89 181.33 465.61 181.97 465.51 182.21 465.35 182.52 465.42 183.1 466 183.48 466.15 183.49 466.75 183.52 467.34 183.41 467.69 183.54 467.9 183.76 467.95 183.87 468.12 184.26 469.04 185.07 469.13 185.15 469.19 185.21 469.59 185.43 470.02 185.67 470.41 185.92 471.18 186.42 471.5 186.83 471.71 187.17 471.81 187.33 471.89 187.63 472.03 188.13 472.63 188.96 473.06 189.64 473.19 189.85 473.3 190.43 473.5 191.06 473.97 192.04 474.51 192.74 474.71 193.11 474.89 193.77 475.19 194.54 475.68 195.37 476.12 196.17 476.74 196.72 476.86 196.71 477.07 196.71 477.31 196.43 477.36 195.81 477.26 195.25 477.57 194.82 477.84 194.67 478.04 194.67 478.22 194.97 478.25 195.12 478.28 195.3 478.57 195.99 479.05 196.67 479.17 197.15 479.24 197.38 479.41 197.66 479.69 198.23 479.71 198.27 479.86 198.25 480.13 198.2 480.4 197.75 480.82 197.18 481.28 197.05 481.74 197.1 482.36 197.34 482.98 197.6 484.24 198.1 485.13 198.43 485.73 198.75 486.75 199.14 487.36 199.43 487.49 199.75 487.15 200.22 486.73 200.77 486.39 200.96 486.26 201.25 486.22 202.18 486.25 202.83 486.33 202.92 486.64 203.26 487.47 203.21 488.09 203.03 488.48 203.05 488.54 203.29 488.58 203.44 488.42 203.73 488.13 204.23 487.95 204.38 487.61 204.67 487.89 205.57 488.22 205.69 489.14 206.05 489.57 205.84 489.89 205.18 490.27 204.64 490.5 204.05 491.42 203.5 492 203.47 492.24 203.72 492.45 203.93 492.75 204.54 493.18 205.6 493.46 206.05 493.69 206.85 493.78 207.52 493.82 207.83 493.42 208.14 493.05 208.19 492.66 208.02 492.49 206.86 492.26 206.22 491.87 205.64 491.58 205.44 491.46 205.36 491.18 205.48 490.95 206.04 490.73 206.61 489.86 207.53 489.48 207.89 489.35 208.03 489.66 208.55 490.42 208.66 490.54 208.67 490.99 208.92 491.54 209.42 492.52 210.57 493.04 211.06 493.19 211.46 493.85 212.08 494.16 212.5 494.3 212.7 494.99 212.89 495.37 212.96 495.54 213 496.63 213.3 497.19 213.92 497.28 214.02 497.78 214.4 498.02 214.97 497.9 215.85 498 216.62 498 217.04 498.16 218 498.08 218.4 497.97 219.2 497.99 219.7 498.28 219.99 498.65 220.13 499.01 220.07 499.49 219.75 499.91 219.56 500.37 219.27 500.48 218.87 500.73 218.67 501.18 218.76 501.62 219.13 501.93 219.79 501.87 220.31 501.84 220.52 502.1 220.84 502.12 220.87 502.19 220.96 502.33 221.01 502.48 221.07 502.87 220.97 503.09 220.73 503.13 220.38 503.88 220.09 504.17 220.44 504.67 220.87 505.75 221.44 506.38 221.83 506.51 222.3 506.47 222.82 506.35 223.14 506.01 223.57 505.66 224.06 505.35 224.44 504.93 224.6 504.77 224.97 505.1 225.21 505.64 225.23 505.76 225.23 506.35 225.2 506.63 225.4 506.66 225.68 506.64 226.16 506.7 226.86 506.97 227.37 506.97 227.92 507.1 228.34 507.22 229.03 507.05 229.58 506.85 230.25 506.67 230.59 506.42 231.05 505.96 231.51 505.48 232.03 505.11 232.48 504.83 232.96 504.54 233.28 504.52 233.66 504.54 234.1 504.72 234.57 505.35 235.02 506.1 235.46 506.5 235.36 506.75 234.98 506.96 234.99 507.11 234.99 507.31 235.25 507.51 235.65 507.67 236.06 507.81 236.45 508.03 236.78 508.45 237.11 508.7 237.39 508.76 237.56 508.47 237.88 508.26 238.27 507.53 238.78 507.22 239.18 507.22 239.19 507.34 240.23 507.69 240.76 508.13 240.94 508.88 240.98 509.55 240.64 510.42 240.62 511.01 240.91 511.23 241.88 511.32 242.29 511.88 243.25 511.99 243.41 512.27 243.81 512.5 244.26 512.69 244.61 513.22 245.29 513.4 245.52 513.77 246.22 513.79 246.91 513.79 247.01 513.31 247.44 512.1 247.77 512.04 247.78 512.35 248.16 512.56 248.41 513.34 248.75 513.66 248.9 515.14 249.32 515.35 249.29 516.2 249.17 516.33 248.9 516.66 248.19 517.02 247.83 517.87 247.85 518.56 247.94 519.5 247.66 519.96 247.43 520.61 247.51 520.88 247.83 520.62 248.45 520.79 248.81 521.71 248.72 522.54 249.42 523.28 249.85 523.35 249.89 523.49 249.92 524.5 250.14 525.33 250.69 526.08 251.1 526.41 251.38 526.73 251.65 526.82 251.7 Z"/>
<path d="M 720.5 539.59 719.95 540.4 719.47 541.07 719.39 541.35 719.42 541.62 719.42 542.44 719.56 544.25 719.5 545.67 719.5 545.95 719.7 547.61 720.04 549.16 720.6 550.12 720.82 550.3 721.07 550.79 721.1 551.32 721.12 552.68 721.06 554.04 720.48 554.96 719.85 556.29 719.53 556.77 719.26 557.11 719.2 557.39 719.14 557.92 719.19 558.19 719.26 558.58 719.69 559.24 720.15 559.71 721.05 560.59 721.42 560.95 722.51 561.64 722.54 561.66 725.25 563.27 726.53 564.42 726.74 564.61 726.87 564.86 727.33 566 727.9 567.11 728.79 568.77 729.38 570.07 730.25 580.6 730.43 582.33 730.6 583.83 730.82 586.24 730.16 589.44 729.79 590.9 729.39 592.14 729.19 593.41 728.64 595.11 727.93 596.45 726.47 598.8 725.82 600.12 725.52 600.94 725.39 601.6 725.25 602.41 725.15 603.37 725.26 604.54 725.33 605.36 725.47 606.91 726.25 609.3 726.42 610.05 726.84 611.69 727.2 612.69 727.61 614.02 727.72 614.48 727.64 614.82 727.28 616.37 726.78 617.08 725.68 619.18 724.81 620.43 724.74 620.55 723.22 622.35 722.75 623.84 722.8 625.96 722.63 626.54 722.64 626.56 722.69 626.8 722.9 628.47 722.02 629.48 719.57 631.09 719.5 630.64 719.4 629.96 719.14 629.45 718.84 629.04 718.61 628.7 718.37 628.46 718.03 628.21 717.73 627.74 717.67 627.01 717.53 626.09 717.91 624.54 718.35 623.76 718.69 623.03 719.07 620.43 637.21 620.42 637.01 611.92 636.74 585.13 636.74 583.98 636.71 579.37 636.69 564.31 636.69 550.6 636.64 536.59 636.63 533.73 658.25 533.68 667.44 533.63 673.75 528 678.9 532.56 682.37 535.59 686.37 532.06 686.92 531.56 686.95 531.59 689.24 529.58 698.32 521.59 702.89 517.57 703.38 517.14 705.19 515.53 705.21 515.52 706.3 516.5 714.39 523.8 717.68 526.77 718.76 527.75 721.36 530.03 721.35 530.09 721.34 530.14 721.32 530.23 721.3 530.31 721.28 530.41 721.25 530.47 721.19 530.53 721.12 530.59 721.06 530.64 720.97 530.73 720.91 530.78 720.86 530.81 720.81 530.88 720.73 530.95 720.69 530.98 720.64 531.04 720.6 531.09 720.54 531.15 720.49 531.23 720.4 531.39 720.37 531.45 720.37 531.5 720.36 531.55 720.35 531.61 720.34 531.66 720.41 531.76 720.41 531.89 720.41 532.01 720.37 532.1 720.3 532.19 720.21 532.31 719.99 532.53 719.83 532.79 719.64 533.06 719.58 533.22 719.52 533.41 719.52 533.47 719.54 533.53 719.51 533.75 719.47 533.95 719.43 534.15 719.41 534.4 719.42 534.45 719.39 534.57 719.38 534.66 719.4 534.74 719.4 534.84 719.39 534.92 719.4 534.99 719.42 535.04 719.44 535.13 719.44 535.2 719.46 535.29 719.51 535.34 719.58 535.48 719.65 535.65 719.66 535.75 719.45 535.75 719.05 535.8 718.81 535.88 718.46 535.95 718.19 536.01 717.9 536.07 717.63 536.16 717.27 536.35 717.1 536.43 716.97 536.57 716.79 536.67 716.58 536.85 716.42 536.95 716.27 537.05 716.33 537.12 716.35 537.22 716.38 537.31 716.41 537.35 716.44 537.4 716.46 537.46 716.49 537.53 716.54 537.58 716.58 537.61 716.68 537.64 716.81 537.66 716.94 537.67 717.04 537.66 717.16 537.65 717.26 537.63 717.51 537.63 717.58 537.63 717.67 537.58 717.77 537.55 718.06 537.42 718.19 537.36 718.33 537.31 718.62 537.16 718.84 537.16 718.94 537.14 719.06 537.14 719.14 537.13 719.2 537.11 719.48 537.04 719.61 537.01 719.88 536.94 719.56 537.18 720.07 539.15 720.07 539.15 720.47 539.57 720.5 539.59 Z"/>
<path d="M 415.83 322.55 415.07 365.66 414.98 370.67 415.03 370.7 417.52 371.59 399.82 411.55 395.32 409.93 395.32 409.07 385.8 408.99 385.32 408.98 384.02 408.94 380.81 408.92 333.75 408.57 331.97 408.55 331.58 408.55 323.53 408.43 307.94 408.19 271.75 407.63 271.76 341.32 271.76 341.29 271.76 339.73 271.76 338.7 271.76 333.63 271.76 322.77 271.76 300.69 271.76 249.44 230.79 249.31 1 248.55 49.82 191.79 112.14 119.33 117.24 119.45 165.93 119.37 183.01 119.34 191.36 119.31 189.98 145.84 189.34 181.77 188.9 205.02 188.63 219.74 203.88 219.96 242.08 220 244.51 219.99 271.63 219.94 275.63 219.94 277.59 219.94 312.58 220.3 322 220.45 321.9 234.78 321.9 234.84 353.08 235.27 351.98 321.64 414.43 322.52 415.83 322.55 Z"/>
</g>
</svg>