<svg width="300" height="600" viewBox="0 0 300 600" xmlns="http://www.w3.org/2000/svg">
  <!-- Phone outline -->
  <rect x="50" y="50" width="200" height="400" rx="20" ry="20" fill="#1A1A1A" stroke="#333333" stroke-width="5"/>
  
  <!-- Screen -->
  <rect x="60" y="70" width="180" height="360" rx="5" ry="5" fill="#FFFFFF"/>
  
  <!-- App UI elements -->
  <!-- Header -->
  <rect x="60" y="70" width="180" height="40" fill="#FF0000"/>
  <text x="85" y="95" font-family="Arial, sans-serif" font-size="15" font-weight="bold" fill="#FFFFFF">RED TV Play</text>
  
  <!-- Content Sections -->
  <!-- Thumbnails for shows/movies -->
  <rect x="70" y="120" width="160" height="80" rx="5" ry="5" fill="#F0F0F0"/>
  <text x="100" y="170" font-family="Arial, sans-serif" font-size="12" fill="#333333">Película destacada</text>
  
  <!-- Channel grid -->
  <rect x="70" y="210" width="75" height="50" rx="5" ry="5" fill="#F0F0F0"/>
  <rect x="155" y="210" width="75" height="50" rx="5" ry="5" fill="#F0F0F0"/>
  <rect x="70" y="270" width="75" height="50" rx="5" ry="5" fill="#F0F0F0"/>
  <rect x="155" y="270" width="75" height="50" rx="5" ry="5" fill="#F0F0F0"/>
  <rect x="70" y="330" width="75" height="50" rx="5" ry="5" fill="#F0F0F0"/>
  <rect x="155" y="330" width="75" height="50" rx="5" ry="5" fill="#F0F0F0"/>
  
  <!-- Navigation -->
  <rect x="60" y="390" width="180" height="40" fill="#FFFFFF" stroke="#CCCCCC" stroke-width="1"/>
  <circle cx="100" cy="410" r="10" fill="#FF0000"/>
  <circle cx="150" cy="410" r="10" fill="#CCCCCC"/>
  <circle cx="200" cy="410" r="10" fill="#CCCCCC"/>
  
  <!-- Home button -->
  <circle cx="150" cy="470" r="15" fill="#F0F0F0" stroke="#CCCCCC" stroke-width="1"/>
</svg> 