<svg xmlns="http://www.w3.org/2000/svg" viewBox="0 0 800 600" fill="none">
  <rect width="800" height="600" fill="#F5F5F5" rx="8" />
  
  <!-- Map Background -->
  <rect x="50" y="50" width="700" height="500" fill="#FFFFFF" rx="8" stroke="#E0E0E0" stroke-width="2" />
  
  <!-- Simplified Chaco Province Map -->
  <path d="M200,150 L600,150 L600,450 L200,450 Z" fill="#F9F9F9" stroke="#CCCCCC" stroke-width="2" />
  
  <!-- Some Department Areas with Coverage -->
  <path d="M200,150 L300,150 L300,250 L200,250 Z" fill="rgba(255, 61, 61, 0.3)" stroke="#CCCCCC" stroke-width="2" />
  <path d="M300,150 L400,150 L400,250 L300,250 Z" fill="rgba(255, 61, 61, 0.3)" stroke="#CCCCCC" stroke-width="2" />
  <path d="M400,150 L500,150 L500,250 L400,250 Z" fill="rgba(255, 160, 61, 0.3)" stroke="#CCCCCC" stroke-width="2" />
  <path d="M500,150 L600,150 L600,250 L500,250 Z" fill="rgba(61, 135, 255, 0.3)" stroke="#CCCCCC" stroke-width="2" />
  
  <path d="M200,250 L300,250 L300,350 L200,350 Z" fill="rgba(255, 160, 61, 0.3)" stroke="#CCCCCC" stroke-width="2" />
  <path d="M300,250 L400,250 L400,350 L300,350 Z" fill="rgba(61, 135, 255, 0.3)" stroke="#CCCCCC" stroke-width="2" />
  <path d="M400,250 L500,250 L500,350 L400,350 Z" fill="rgba(255, 61, 61, 0.3)" stroke="#CCCCCC" stroke-width="2" />
  <path d="M500,250 L600,250 L600,350 L500,350 Z" fill="rgba(255, 61, 61, 0.3)" stroke="#CCCCCC" stroke-width="2" />
  
  <!-- Selected Department with Tooltip -->
  <path d="M300,250 L400,250 L400,350 L300,350 Z" fill="rgba(61, 135, 255, 0.5)" stroke="#3D87FF" stroke-width="3" />
  
  <!-- Information Panel -->
  <rect x="600" y="170" width="120" height="150" fill="white" rx="4" stroke="#E0E0E0" stroke-width="1" />
  <rect x="610" y="180" width="100" height="20" fill="#EEEEEE" rx="2" />
  <rect x="610" y="210" width="80" height="10" fill="#EEEEEE" rx="2" />
  <rect x="610" y="230" width="90" height="10" fill="#EEEEEE" rx="2" />
  <rect x="610" y="250" width="70" height="10" fill="#EEEEEE" rx="2" />
  <rect x="610" y="280" width="100" height="30" fill="#3D87FF" rx="4" />
  
  <!-- Toolbar -->
  <rect x="200" y="100" width="400" height="40" fill="white" rx="4" stroke="#E0E0E0" stroke-width="1" />
  <rect x="220" y="110" width="20" height="20" fill="#FF3D3D" rx="2" />
  <rect x="250" y="110" width="80" height="10" fill="#EEEEEE" rx="2" />
  <rect x="350" y="110" width="20" height="20" fill="#FFA03D" rx="2" />
  <rect x="380" y="110" width="80" height="10" fill="#EEEEEE" rx="2" />
  <rect x="480" y="110" width="20" height="20" fill="#3D87FF" rx="2" />
  <rect x="510" y="110" width="80" height="10" fill="#EEEEEE" rx="2" />
  
  <!-- Legend -->
  <rect x="200" y="460" width="180" height="80" fill="white" rx="4" stroke="#E0E0E0" stroke-width="1" />
  <rect x="220" y="470" width="15" height="15" fill="rgba(255, 61, 61, 0.4)" rx="2" />
  <rect x="245" y="470" width="120" height="10" fill="#EEEEEE" rx="2" />
  <rect x="220" y="495" width="15" height="15" fill="rgba(255, 160, 61, 0.4)" rx="2" />
  <rect x="245" y="495" width="120" height="10" fill="#EEEEEE" rx="2" />
  <rect x="220" y="520" width="15" height="15" fill="rgba(61, 135, 255, 0.4)" rx="2" />
  <rect x="245" y="520" width="120" height="10" fill="#EEEEEE" rx="2" />
  
  <!-- UI Overlay Elements for Interactive Feel -->
  <rect x="260" y="270" width="180" height="60" fill="rgba(0, 0, 0, 0.7)" rx="4" />
  <rect x="280" y="280" width="140" height="15" fill="#FFFFFF" rx="2" />
  <rect x="280" y="305" width="100" height="10" fill="#FFFFFF" opacity="0.7" rx="2" />
  
  <!-- Mouse Cursor -->
  <path d="M350,270 L360,280 L345,295 L340,285 Z" fill="white" stroke="#333333" stroke-width="1" />
</svg> 