<svg width="1200" height="600" viewBox="0 0 1200 600" xmlns="http://www.w3.org/2000/svg">
  <!-- Sky background with gradient -->
  <rect x="0" y="0" width="1200" height="400" fill="url(#sky-gradient)"/>
  <defs>
    <linearGradient id="sky-gradient" x1="0%" y1="0%" x2="0%" y2="100%">
      <stop offset="0%" style="stop-color:#64a0e0;stop-opacity:1" />
      <stop offset="100%" style="stop-color:#a6cef5;stop-opacity:1" />
    </linearGradient>
  </defs>
  
  <!-- Sun -->
  <circle cx="900" cy="120" r="60" fill="#ffeb3b"/>
  <circle cx="900" cy="120" r="70" fill="#ffeb3b" opacity="0.3"/>
  <circle cx="900" cy="120" r="80" fill="#ffeb3b" opacity="0.1"/>
  
  <!-- Landscape - flat terrain typical of Chaco -->
  <rect x="0" y="400" width="1200" height="200" fill="#8b5d33"/>
  
  <!-- Various vegetation elements -->
  <!-- Trees in the distance -->
  <g transform="translate(100, 380)">
    <rect x="0" y="0" width="15" height="40" fill="#4e3524"/>
    <ellipse cx="7" cy="-15" rx="25" ry="30" fill="#355e3b"/>
  </g>
  
  <g transform="translate(180, 370)">
    <rect x="0" y="0" width="12" height="50" fill="#4e3524"/>
    <ellipse cx="6" cy="-20" rx="20" ry="25" fill="#355e3b"/>
  </g>
  
  <g transform="translate(250, 385)">
    <rect x="0" y="0" width="10" height="35" fill="#4e3524"/>
    <ellipse cx="5" cy="-10" rx="15" ry="20" fill="#355e3b"/>
  </g>
  
  <!-- Quebracho trees, typical of Chaco -->
  <g transform="translate(500, 360)">
    <rect x="0" y="0" width="20" height="60" fill="#5d4037"/>
    <ellipse cx="10" cy="-25" rx="35" ry="40" fill="#1b5e20"/>
  </g>
  
  <g transform="translate(700, 350)">
    <rect x="0" y="0" width="25" height="70" fill="#5d4037"/>
    <ellipse cx="12" cy="-30" rx="40" ry="45" fill="#1b5e20"/>
  </g>
  
  <!-- Palms in the foreground -->
  <g transform="translate(900, 340)">
    <rect x="0" y="0" width="15" height="80" fill="#795548"/>
    <ellipse cx="8" cy="-45" rx="30" ry="50" fill="#2e7d32"/>
  </g>
  
  <g transform="translate(1000, 330)">
    <rect x="0" y="0" width="18" height="90" fill="#795548"/>
    <ellipse cx="9" cy="-50" rx="35" ry="55" fill="#2e7d32"/>
  </g>
  
  <!-- Small bushes -->
  <ellipse cx="300" cy="420" rx="25" ry="15" fill="#33691e"/>
  <ellipse cx="400" cy="430" rx="20" ry="10" fill="#33691e"/>
  <ellipse cx="850" cy="440" rx="30" ry="15" fill="#33691e"/>
  
  <!-- Road or path -->
  <path d="M0,500 C400,480 800,520 1200,500" stroke="#d7ccc8" stroke-width="30" fill="none"/>
  
  <!-- Fiber optic cable/connection representation -->
  <path d="M200,550 C500,530 700,560 1000,540" stroke="#FF0000" stroke-width="5" fill="none" stroke-dasharray="10,5"/>
  <circle cx="200" cy="550" r="8" fill="#FF0000"/>
  <circle cx="1000" cy="540" r="8" fill="#FF0000"/>
</svg> 