<svg xmlns="http://www.w3.org/2000/svg" viewBox="0 0 24 24" fill="none" stroke="#3d87ff" stroke-width="2" stroke-linecap="round" stroke-linejoin="round">
  <path d="M2 12C2 8.22876 5.22876 5 9 5H15C18.7712 5 22 8.22876 22 12V19C22 19.5523 21.5523 20 21 20H3C2.44772 20 2 19.5523 2 19V12Z"></path>
  <path d="M7 10C7 8.34315 8.34315 7 10 7H14C15.6569 7 17 8.34315 17 10V20H7V10Z"></path>
  <path d="M17 13.5C17.8284 13.5 18.5 12.8284 18.5 12C18.5 11.1716 17.8284 10.5 17 10.5"></path>
  <path d="M7 13.5C6.17157 13.5 5.5 12.8284 5.5 12C5.5 11.1716 6.17157 10.5 7 10.5"></path>
  <path d="M20 13.5C21.1046 13.5 22 12.8284 22 12"></path>
  <path d="M4 13.5C2.89543 13.5 2 12.8284 2 12"></path>
</svg> 